<svg xmlns="http://www.w3.org/2000/svg" xmlns:xlink="http://www.w3.org/1999/xlink" width="315" zoomAndPan="magnify" viewBox="0 0 236.25 182.249993" height="243" preserveAspectRatio="xMidYMid meet" version="1.0"><defs><g/></defs><g fill="#af294d" fill-opacity="1"><g transform="translate(75.533989, 101.631304)"><g><path d="M 42.9375 -17.921875 C 42.84375 -17.910156 42.742188 -17.910156 42.640625 -17.921875 C 42.546875 -17.941406 42.457031 -17.984375 42.375 -18.046875 C 42.28125 -18.148438 42.238281 -18.242188 42.25 -18.328125 C 42.269531 -18.410156 42.304688 -18.488281 42.359375 -18.5625 C 43.160156 -19.851562 43.859375 -21.210938 44.453125 -22.640625 C 44.828125 -23.515625 45.15625 -24.414062 45.4375 -25.34375 C 45.625 -25.914062 45.640625 -26.53125 45.484375 -27.1875 C 45.335938 -27.894531 44.914062 -28.394531 44.21875 -28.6875 C 43.6875 -28.882812 43.140625 -28.992188 42.578125 -29.015625 C 42.472656 -29.015625 42.375 -29.015625 42.28125 -29.015625 C 41.09375 -28.960938 39.941406 -28.789062 38.828125 -28.5 C 36.898438 -28.03125 35.035156 -27.445312 33.234375 -26.75 C 31.441406 -26.0625 29.6875 -25.304688 27.96875 -24.484375 C 20.414062 -20.816406 13.660156 -16.179688 7.703125 -10.578125 C 6.203125 -9.222656 4.882812 -7.710938 3.75 -6.046875 C 3.363281 -5.453125 3.019531 -4.828125 2.71875 -4.171875 C 2.550781 -3.796875 2.429688 -3.398438 2.359375 -2.984375 C 2.109375 -1.617188 2.703125 -0.597656 4.140625 0.078125 C 5.347656 0.640625 6.578125 0.957031 7.828125 1.03125 C 8.804688 1.113281 9.765625 1.15625 10.703125 1.15625 C 11.140625 1.15625 11.5625 1.132812 11.96875 1.09375 C 17.875 1.03125 23.453125 0.265625 28.703125 -1.203125 C 28.785156 -1.234375 28.867188 -1.257812 28.953125 -1.28125 C 29.304688 -1.40625 29.679688 -1.5 30.078125 -1.5625 C 30.171875 -1.582031 30.332031 -1.597656 30.5625 -1.609375 C 30.800781 -1.628906 31.023438 -1.617188 31.234375 -1.578125 C 31.453125 -1.535156 31.585938 -1.4375 31.640625 -1.28125 C 31.648438 -1.195312 31.632812 -1.132812 31.59375 -1.09375 C 31.550781 -1.050781 31.488281 -1.019531 31.40625 -1 C 31.082031 -0.914062 30.765625 -0.832031 30.453125 -0.75 C 29.503906 -0.5 28.554688 -0.253906 27.609375 -0.015625 C 22.285156 1.347656 16.765625 2.015625 11.046875 1.984375 C 9.859375 1.984375 8.675781 1.957031 7.5 1.90625 C 6.164062 1.851562 4.832031 1.578125 3.5 1.078125 C 0.84375 0.046875 -0.0820312 -1.648438 0.71875 -4.015625 C 1.039062 -4.960938 1.492188 -5.832031 2.078125 -6.625 C 2.898438 -7.8125 3.8125 -8.910156 4.8125 -9.921875 C 5.8125 -10.929688 6.851562 -11.910156 7.9375 -12.859375 C 12.757812 -17.109375 18.066406 -20.757812 23.859375 -23.8125 C 25.640625 -24.75 27.445312 -25.617188 29.28125 -26.421875 C 31.125 -27.222656 33.019531 -27.929688 34.96875 -28.546875 C 36.613281 -29.066406 38.304688 -29.457031 40.046875 -29.71875 C 40.742188 -29.820312 41.4375 -29.875 42.125 -29.875 C 42.570312 -29.875 43.03125 -29.859375 43.5 -29.828125 C 44.03125 -29.773438 44.566406 -29.664062 45.109375 -29.5 C 46.566406 -28.976562 47.3125 -28.015625 47.34375 -26.609375 C 47.34375 -25.984375 47.257812 -25.382812 47.09375 -24.8125 C 46.738281 -23.695312 46.300781 -22.625 45.78125 -21.59375 C 45.269531 -20.570312 44.71875 -19.566406 44.125 -18.578125 C 43.957031 -18.242188 43.6875 -18.023438 43.3125 -17.921875 C 43.195312 -17.910156 43.085938 -17.910156 42.984375 -17.921875 Z M 42.9375 -17.921875 "/></g></g></g><g fill="#af294d" fill-opacity="1"><g transform="translate(108.329286, 101.631304)"><g><path d="M 0.28125 -2.03125 C -0.445312 -2.03125 -0.8125 -2.410156 -0.8125 -3.171875 C -0.8125 -4.109375 -0.207031 -5.75 1 -8.09375 C 1.050781 -8.195312 1.132812 -8.25 1.25 -8.25 C 1.738281 -8.25 1.984375 -8.054688 1.984375 -7.671875 C 1.984375 -7.523438 1.941406 -7.351562 1.859375 -7.15625 C 1.828125 -7.101562 1.421875 -6.09375 0.640625 -4.125 C 0.515625 -3.800781 0.453125 -3.5625 0.453125 -3.40625 C 0.453125 -3.238281 0.53125 -3.15625 0.6875 -3.15625 C 1.25 -3.15625 2.71875 -4.546875 5.09375 -7.328125 C 5.40625 -7.703125 5.710938 -7.890625 6.015625 -7.890625 C 6.453125 -7.890625 6.671875 -7.734375 6.671875 -7.421875 C 6.671875 -7.296875 6.535156 -6.828125 6.265625 -6.015625 C 5.890625 -4.921875 5.703125 -4.289062 5.703125 -4.125 C 5.703125 -3.863281 5.789062 -3.734375 5.96875 -3.734375 C 6.382812 -3.734375 7.613281 -4.488281 9.65625 -6 C 9.769531 -6.09375 9.867188 -6.140625 9.953125 -6.140625 C 10.148438 -6.140625 10.25 -5.984375 10.25 -5.671875 C 10.25 -5.578125 10.222656 -5.503906 10.171875 -5.453125 C 9.085938 -4.523438 8.164062 -3.820312 7.40625 -3.34375 C 6.707031 -2.894531 6.09375 -2.671875 5.5625 -2.671875 L 5.40625 -2.671875 C 4.613281 -2.835938 4.21875 -3.457031 4.21875 -4.53125 C 3.375 -3.78125 2.671875 -3.175781 2.109375 -2.71875 C 1.554688 -2.257812 0.945312 -2.03125 0.28125 -2.03125 Z M 0.28125 -2.03125 "/></g></g></g><g fill="#af294d" fill-opacity="1"><g transform="translate(117.79146, 101.631304)"><g><path d="M 5.578125 -5.484375 C 5.828125 -5.742188 6.035156 -5.890625 6.203125 -5.921875 C 6.367188 -5.953125 6.476562 -5.921875 6.53125 -5.828125 C 6.582031 -5.742188 6.550781 -5.628906 6.4375 -5.484375 C 5.757812 -4.671875 5 -3.96875 4.15625 -3.375 C 3.320312 -2.789062 2.460938 -2.453125 1.578125 -2.359375 C 0.691406 -2.265625 0.160156 -2.75 -0.015625 -3.8125 C -0.160156 -4.863281 0.46875 -7.003906 1.875 -10.234375 C 3.289062 -13.460938 4.410156 -16.109375 5.234375 -18.171875 C 5.304688 -18.359375 5.410156 -18.519531 5.546875 -18.65625 C 5.734375 -18.84375 5.953125 -18.882812 6.203125 -18.78125 C 6.285156 -18.75 6.367188 -18.691406 6.453125 -18.609375 C 6.535156 -18.523438 6.566406 -18.375 6.546875 -18.15625 C 2.910156 -9.539062 1.148438 -4.859375 1.265625 -4.109375 C 1.378906 -3.359375 1.863281 -3.171875 2.71875 -3.546875 C 3.570312 -3.929688 4.234375 -4.320312 4.703125 -4.71875 C 5.171875 -5.113281 5.460938 -5.367188 5.578125 -5.484375 Z M 5.578125 -5.484375 "/></g></g></g><g fill="#af294d" fill-opacity="1"><g transform="translate(123.535529, 101.631304)"><g><path d="M 7.203125 -5.5625 C 6.171875 -4.34375 5.160156 -3.445312 4.171875 -2.875 C 3.179688 -2.300781 2.125 -2.113281 1 -2.3125 C -0.113281 -2.507812 -0.570312 -3.265625 -0.375 -4.578125 C -0.238281 -5.234375 -0.0507812 -5.875 0.1875 -6.5 C 0.78125 -7.96875 1.378906 -9.425781 1.984375 -10.875 C 2.179688 -11.394531 2.390625 -11.921875 2.609375 -12.453125 C 2.660156 -12.566406 2.710938 -12.679688 2.765625 -12.796875 C 2.847656 -12.992188 2.929688 -13.191406 3.015625 -13.390625 C 3.140625 -13.722656 3.003906 -13.898438 2.609375 -13.921875 C 2.390625 -13.921875 2.171875 -13.921875 1.953125 -13.921875 C 1.859375 -13.921875 1.75 -13.921875 1.625 -13.921875 C 1.507812 -13.898438 1.390625 -13.882812 1.265625 -13.875 C 1.066406 -13.851562 0.867188 -13.84375 0.671875 -13.84375 C 0.472656 -13.84375 0.289062 -13.894531 0.125 -14 C 0.0820312 -14.007812 0.046875 -14.035156 0.015625 -14.078125 C -0.00390625 -14.128906 -0.015625 -14.179688 -0.015625 -14.234375 C -0.00390625 -14.265625 0.015625 -14.300781 0.046875 -14.34375 C 0.0859375 -14.382812 0.132812 -14.410156 0.1875 -14.421875 C 0.351562 -14.492188 0.53125 -14.546875 0.71875 -14.578125 C 1.1875 -14.597656 1.65625 -14.613281 2.125 -14.625 C 2.3125 -14.625 2.472656 -14.625 2.609375 -14.625 C 2.921875 -14.625 3.148438 -14.632812 3.296875 -14.65625 C 3.441406 -14.6875 3.5625 -14.769531 3.65625 -14.90625 C 3.75 -15.039062 3.859375 -15.253906 3.984375 -15.546875 C 4.054688 -15.691406 4.140625 -15.859375 4.234375 -16.046875 C 4.484375 -16.585938 4.738281 -17.132812 5 -17.6875 C 5.113281 -17.945312 5.234375 -18.195312 5.359375 -18.4375 C 5.453125 -18.664062 5.609375 -18.847656 5.828125 -18.984375 C 6.035156 -19.085938 6.210938 -19.082031 6.359375 -18.96875 C 6.410156 -18.9375 6.445312 -18.882812 6.46875 -18.8125 C 6.5 -18.738281 6.515625 -18.675781 6.515625 -18.625 C 6.515625 -18.320312 6.4375 -18.023438 6.28125 -17.734375 C 6.25 -17.679688 6.21875 -17.609375 6.1875 -17.515625 C 6.082031 -17.242188 5.972656 -16.96875 5.859375 -16.6875 C 5.640625 -16.164062 5.429688 -15.628906 5.234375 -15.078125 C 5.171875 -14.984375 5.164062 -14.894531 5.21875 -14.8125 C 5.269531 -14.738281 5.347656 -14.703125 5.453125 -14.703125 C 5.992188 -14.679688 6.523438 -14.671875 7.046875 -14.671875 C 7.316406 -14.671875 7.585938 -14.671875 7.859375 -14.671875 C 8.703125 -14.660156 9.035156 -14.546875 8.859375 -14.328125 C 8.742188 -14.191406 8.617188 -14.113281 8.484375 -14.09375 C 8.359375 -14.070312 8.222656 -14.078125 8.078125 -14.109375 C 7.992188 -14.109375 7.910156 -14.109375 7.828125 -14.109375 C 6.972656 -14.046875 6.117188 -14.007812 5.265625 -14 C 4.878906 -14 4.617188 -13.820312 4.484375 -13.46875 C 4.347656 -13.132812 4.21875 -12.796875 4.09375 -12.453125 C 3.894531 -12.015625 3.710938 -11.582031 3.546875 -11.15625 C 3.378906 -10.757812 3.210938 -10.359375 3.046875 -9.953125 C 2.609375 -8.921875 2.179688 -7.882812 1.765625 -6.84375 C 1.515625 -6.175781 1.316406 -5.488281 1.171875 -4.78125 C 0.847656 -3.5 1.34375 -3.003906 2.65625 -3.296875 C 3.945312 -3.609375 5.300781 -4.539062 6.71875 -6.09375 C 7.332031 -6.476562 7.492188 -6.300781 7.203125 -5.5625 Z M 7.203125 -5.5625 "/></g></g></g><g fill="#af294d" fill-opacity="1"><g transform="translate(130.073868, 101.631304)"><g><path d="M 0.28125 -2.03125 C -0.445312 -2.03125 -0.8125 -2.410156 -0.8125 -3.171875 C -0.8125 -4.109375 -0.207031 -5.75 1 -8.09375 C 1.050781 -8.195312 1.132812 -8.25 1.25 -8.25 C 1.738281 -8.25 1.984375 -8.054688 1.984375 -7.671875 C 1.984375 -7.523438 1.941406 -7.351562 1.859375 -7.15625 C 1.828125 -7.101562 1.421875 -6.09375 0.640625 -4.125 C 0.515625 -3.800781 0.453125 -3.5625 0.453125 -3.40625 C 0.453125 -3.238281 0.53125 -3.15625 0.6875 -3.15625 C 1.25 -3.15625 2.71875 -4.546875 5.09375 -7.328125 C 5.40625 -7.703125 5.710938 -7.890625 6.015625 -7.890625 C 6.453125 -7.890625 6.671875 -7.734375 6.671875 -7.421875 C 6.671875 -7.296875 6.535156 -6.828125 6.265625 -6.015625 C 5.890625 -4.921875 5.703125 -4.289062 5.703125 -4.125 C 5.703125 -3.863281 5.789062 -3.734375 5.96875 -3.734375 C 6.382812 -3.734375 7.613281 -4.488281 9.65625 -6 C 9.769531 -6.09375 9.867188 -6.140625 9.953125 -6.140625 C 10.148438 -6.140625 10.25 -5.984375 10.25 -5.671875 C 10.25 -5.578125 10.222656 -5.503906 10.171875 -5.453125 C 9.085938 -4.523438 8.164062 -3.820312 7.40625 -3.34375 C 6.707031 -2.894531 6.09375 -2.671875 5.5625 -2.671875 L 5.40625 -2.671875 C 4.613281 -2.835938 4.21875 -3.457031 4.21875 -4.53125 C 3.375 -3.78125 2.671875 -3.175781 2.109375 -2.71875 C 1.554688 -2.257812 0.945312 -2.03125 0.28125 -2.03125 Z M 0.28125 -2.03125 "/></g></g></g><g fill="#af294d" fill-opacity="1"><g transform="translate(139.536042, 101.631304)"><g><path d="M 5.515625 -7.0625 C 5.453125 -6.539062 5.207031 -6.195312 4.78125 -6.03125 C 4.351562 -5.875 4.210938 -6.085938 4.359375 -6.671875 C 4.503906 -7.253906 4.238281 -7.398438 3.5625 -7.109375 C 2.894531 -6.816406 2.34375 -6.453125 1.90625 -6.015625 C 1.226562 -5.328125 0.628906 -4.582031 0.109375 -3.78125 C 0.046875 -3.71875 0.00390625 -3.660156 -0.015625 -3.609375 C -0.171875 -3.390625 -0.328125 -3.179688 -0.484375 -2.984375 C -0.585938 -2.847656 -0.703125 -2.757812 -0.828125 -2.71875 C -0.960938 -2.6875 -1.101562 -2.679688 -1.25 -2.703125 C -1.375 -2.722656 -1.46875 -2.773438 -1.53125 -2.859375 C -1.601562 -2.941406 -1.613281 -3.039062 -1.5625 -3.15625 C -1.476562 -3.363281 -1.378906 -3.570312 -1.265625 -3.78125 C -0.578125 -5.0625 0.125 -6.347656 0.84375 -7.640625 C 0.851562 -7.660156 0.859375 -7.675781 0.859375 -7.6875 C 0.960938 -7.882812 1.082031 -8.070312 1.21875 -8.25 C 1.375 -8.414062 1.550781 -8.484375 1.75 -8.453125 C 1.945312 -8.421875 2.082031 -8.300781 2.15625 -8.09375 C 2.238281 -7.820312 2.3125 -7.671875 2.375 -7.640625 C 2.4375 -7.609375 2.570312 -7.632812 2.78125 -7.71875 C 3.25 -7.882812 3.703125 -8 4.140625 -8.0625 C 4.578125 -8.132812 4.929688 -8.117188 5.203125 -8.015625 C 5.484375 -7.910156 5.585938 -7.59375 5.515625 -7.0625 Z M 5.515625 -7.0625 "/></g></g></g><g fill="#af294d" fill-opacity="1"><g transform="translate(145.291623, 101.631304)"><g><path d="M 8.34375 -5.859375 C 8.53125 -5.753906 8.546875 -5.503906 8.390625 -5.109375 C 8.171875 -4.816406 7.929688 -4.546875 7.671875 -4.296875 C 7.421875 -4.046875 7.144531 -3.816406 6.84375 -3.609375 C 6.820312 -3.609375 6.8125 -3.601562 6.8125 -3.59375 C 6.613281 -3.457031 6.40625 -3.335938 6.1875 -3.234375 C 4.351562 -2.578125 3.414062 -2.960938 3.375 -4.390625 C 2.625 -3.753906 2.125 -3.363281 1.875 -3.21875 C 1.269531 -2.851562 0.613281 -2.691406 -0.09375 -2.734375 C -0.613281 -2.765625 -0.96875 -2.921875 -1.15625 -3.203125 C -1.34375 -3.492188 -1.328125 -3.882812 -1.109375 -4.375 C -0.765625 -5.144531 -0.285156 -5.835938 0.328125 -6.453125 C 1.054688 -7.117188 1.867188 -7.660156 2.765625 -8.078125 C 3.242188 -8.304688 3.742188 -8.394531 4.265625 -8.34375 C 4.785156 -8.3125 5.097656 -8.015625 5.203125 -7.453125 C 5.242188 -7.285156 5.203125 -7.140625 5.078125 -7.015625 C 4.910156 -6.859375 4.710938 -6.820312 4.484375 -6.90625 C 4.472656 -6.90625 4.453125 -6.910156 4.421875 -6.921875 C 4.398438 -6.929688 4.378906 -6.941406 4.359375 -6.953125 C 4.140625 -7.265625 3.914062 -7.394531 3.6875 -7.34375 C 3.457031 -7.289062 3.21875 -7.1875 2.96875 -7.03125 C 1.789062 -6.34375 0.910156 -5.378906 0.328125 -4.140625 C 0.296875 -4.085938 0.273438 -4.03125 0.265625 -3.96875 C 0.265625 -3.90625 0.285156 -3.851562 0.328125 -3.8125 C 0.472656 -3.757812 0.628906 -3.765625 0.796875 -3.828125 C 0.960938 -3.898438 1.128906 -4 1.296875 -4.125 C 1.460938 -4.25 1.609375 -4.351562 1.734375 -4.4375 C 1.742188 -4.46875 1.75 -4.484375 1.75 -4.484375 C 2.3125 -4.953125 2.859375 -5.429688 3.390625 -5.921875 C 3.628906 -6.171875 3.925781 -6.3125 4.28125 -6.34375 C 4.789062 -6.34375 5.003906 -6.117188 4.921875 -5.671875 C 4.867188 -5.492188 4.816406 -5.320312 4.765625 -5.15625 C 4.566406 -4.425781 4.554688 -4 4.734375 -3.875 C 4.921875 -3.75 5.203125 -3.75 5.578125 -3.875 C 5.960938 -4 6.34375 -4.238281 6.71875 -4.59375 C 7.101562 -4.957031 7.425781 -5.285156 7.6875 -5.578125 C 7.945312 -5.867188 8.164062 -5.960938 8.34375 -5.859375 Z M 8.34375 -5.859375 "/></g></g></g><g fill="#af294d" fill-opacity="1"><g transform="translate(152.923522, 101.631304)"><g><path d="M 5.578125 -5.484375 C 5.828125 -5.742188 6.035156 -5.890625 6.203125 -5.921875 C 6.367188 -5.953125 6.476562 -5.921875 6.53125 -5.828125 C 6.582031 -5.742188 6.550781 -5.628906 6.4375 -5.484375 C 5.757812 -4.671875 5 -3.96875 4.15625 -3.375 C 3.320312 -2.789062 2.460938 -2.453125 1.578125 -2.359375 C 0.691406 -2.265625 0.160156 -2.75 -0.015625 -3.8125 C -0.160156 -4.863281 0.46875 -7.003906 1.875 -10.234375 C 3.289062 -13.460938 4.410156 -16.109375 5.234375 -18.171875 C 5.304688 -18.359375 5.410156 -18.519531 5.546875 -18.65625 C 5.734375 -18.84375 5.953125 -18.882812 6.203125 -18.78125 C 6.285156 -18.75 6.367188 -18.691406 6.453125 -18.609375 C 6.535156 -18.523438 6.566406 -18.375 6.546875 -18.15625 C 2.910156 -9.539062 1.148438 -4.859375 1.265625 -4.109375 C 1.378906 -3.359375 1.863281 -3.171875 2.71875 -3.546875 C 3.570312 -3.929688 4.234375 -4.320312 4.703125 -4.71875 C 5.171875 -5.113281 5.460938 -5.367188 5.578125 -5.484375 Z M 5.578125 -5.484375 "/></g></g></g><g fill="#af294d" fill-opacity="1"><g transform="translate(113.086446, 105.832388)"><g><path d="M 2.378906 0.0507812 C 3.59375 0.0507812 4.234375 -0.402344 4.320312 -1.160156 L 4.03125 -1.160156 C 3.945312 -0.535156 3.394531 -0.207031 2.378906 -0.207031 C 1.21875 -0.207031 0.691406 -0.628906 0.691406 -1.433594 L 0.691406 -1.660156 C 0.691406 -2.464844 1.21875 -2.886719 2.378906 -2.886719 C 3.371094 -2.886719 3.992188 -2.574219 4.039062 -1.980469 L 4.324219 -1.980469 C 4.28125 -2.710938 3.574219 -3.144531 2.378906 -3.144531 C 1.015625 -3.144531 0.414062 -2.589844 0.414062 -1.660156 L 0.414062 -1.433594 C 0.414062 -0.503906 1.015625 0.0507812 2.378906 0.0507812 Z M 2.378906 0.0507812 "/></g></g></g><g fill="#af294d" fill-opacity="1"><g transform="translate(119.098475, 105.832388)"><g><path d="M 2.003906 0.0507812 C 3.144531 0.0507812 3.652344 -0.433594 3.652344 -1.210938 L 3.652344 -1.398438 C 3.652344 -2.175781 3.144531 -2.625 2.003906 -2.625 C 0.867188 -2.625 0.359375 -2.171875 0.359375 -1.382812 L 0.359375 -1.191406 C 0.359375 -0.414062 0.867188 0.0507812 2.003906 0.0507812 Z M 2.003906 -0.195312 C 1.0625 -0.195312 0.628906 -0.511719 0.628906 -1.191406 L 0.628906 -1.382812 C 0.628906 -2.0625 1.0625 -2.378906 2.003906 -2.378906 C 2.960938 -2.378906 3.382812 -2.074219 3.382812 -1.398438 L 3.382812 -1.210938 C 3.382812 -0.519531 2.945312 -0.195312 2.003906 -0.195312 Z M 2.003906 -0.195312 "/></g></g></g><g fill="#af294d" fill-opacity="1"><g transform="translate(124.378329, 105.832388)"><g><path d="M 4.882812 -2.625 C 4.175781 -2.625 3.695312 -2.300781 3.480469 -1.773438 C 3.351562 -2.308594 2.878906 -2.625 2.175781 -2.625 C 1.503906 -2.625 1.042969 -2.335938 0.808594 -1.855469 L 0.808594 -2.578125 L 0.550781 -2.578125 L 0.550781 0 L 0.808594 0 L 0.808594 -1.035156 C 0.808594 -1.820312 1.292969 -2.386719 2.175781 -2.386719 C 2.824219 -2.386719 3.25 -2.078125 3.25 -1.402344 L 3.25 0 L 3.515625 0 L 3.515625 -1.035156 C 3.515625 -1.820312 4 -2.386719 4.882812 -2.386719 C 5.53125 -2.386719 5.957031 -2.078125 5.957031 -1.402344 L 5.957031 0 L 6.222656 0 L 6.222656 -1.449219 C 6.222656 -2.179688 5.71875 -2.625 4.882812 -2.625 Z M 4.882812 -2.625 "/></g></g></g><g fill="#af294d" fill-opacity="1"><g transform="translate(132.365148, 105.832388)"><g><path d="M 4.882812 -2.625 C 4.175781 -2.625 3.695312 -2.300781 3.480469 -1.773438 C 3.351562 -2.308594 2.878906 -2.625 2.175781 -2.625 C 1.503906 -2.625 1.042969 -2.335938 0.808594 -1.855469 L 0.808594 -2.578125 L 0.550781 -2.578125 L 0.550781 0 L 0.808594 0 L 0.808594 -1.035156 C 0.808594 -1.820312 1.292969 -2.386719 2.175781 -2.386719 C 2.824219 -2.386719 3.25 -2.078125 3.25 -1.402344 L 3.25 0 L 3.515625 0 L 3.515625 -1.035156 C 3.515625 -1.820312 4 -2.386719 4.882812 -2.386719 C 5.53125 -2.386719 5.957031 -2.078125 5.957031 -1.402344 L 5.957031 0 L 6.222656 0 L 6.222656 -1.449219 C 6.222656 -2.179688 5.71875 -2.625 4.882812 -2.625 Z M 4.882812 -2.625 "/></g></g></g><g fill="#af294d" fill-opacity="1"><g transform="translate(140.351967, 105.832388)"><g><path d="M 0.597656 -2.9375 C 0.726562 -2.9375 0.785156 -2.996094 0.785156 -3.089844 L 0.785156 -3.105469 C 0.785156 -3.195312 0.726562 -3.25 0.597656 -3.25 C 0.46875 -3.25 0.414062 -3.195312 0.414062 -3.105469 L 0.414062 -3.082031 C 0.414062 -2.996094 0.46875 -2.9375 0.597656 -2.9375 Z M 0.464844 0 L 0.722656 0 L 0.722656 -2.578125 L 0.464844 -2.578125 Z M 0.464844 0 "/></g></g></g><g fill="#af294d" fill-opacity="1"><g transform="translate(142.806271, 105.832388)"><g><path d="M 2.003906 -0.261719 C 1.847656 -0.222656 1.695312 -0.195312 1.546875 -0.195312 C 0.996094 -0.195312 0.902344 -0.519531 0.902344 -0.886719 L 0.902344 -2.339844 L 1.992188 -2.339844 L 1.992188 -2.578125 L 0.902344 -2.578125 L 0.902344 -3.09375 L 0.644531 -3.09375 L 0.644531 -2.578125 L 0.1875 -2.578125 L 0.1875 -2.339844 L 0.644531 -2.339844 L 0.644531 -0.886719 C 0.644531 -0.558594 0.660156 0.0507812 1.546875 0.0507812 C 1.722656 0.0507812 1.898438 0.0195312 2.066406 -0.0429688 Z M 2.003906 -0.261719 "/></g></g></g><g fill="#af294d" fill-opacity="1"><g transform="translate(146.266017, 105.832388)"><g><path d="M 2.003906 -0.261719 C 1.847656 -0.222656 1.695312 -0.195312 1.546875 -0.195312 C 0.996094 -0.195312 0.902344 -0.519531 0.902344 -0.886719 L 0.902344 -2.339844 L 1.992188 -2.339844 L 1.992188 -2.578125 L 0.902344 -2.578125 L 0.902344 -3.09375 L 0.644531 -3.09375 L 0.644531 -2.578125 L 0.1875 -2.578125 L 0.1875 -2.339844 L 0.644531 -2.339844 L 0.644531 -0.886719 C 0.644531 -0.558594 0.660156 0.0507812 1.546875 0.0507812 C 1.722656 0.0507812 1.898438 0.0195312 2.066406 -0.0429688 Z M 2.003906 -0.261719 "/></g></g></g><g fill="#af294d" fill-opacity="1"><g transform="translate(149.725762, 105.832388)"><g><path d="M 1.953125 0.0507812 C 2.898438 0.0507812 3.460938 -0.316406 3.523438 -0.921875 L 3.25 -0.921875 C 3.1875 -0.429688 2.703125 -0.1875 1.953125 -0.1875 C 1.082031 -0.1875 0.59375 -0.511719 0.628906 -1.246094 C 1.082031 -1.171875 1.59375 -1.125 2.003906 -1.125 C 2.800781 -1.125 3.460938 -1.320312 3.460938 -1.792969 L 3.460938 -1.902344 C 3.460938 -2.351562 2.898438 -2.625 2.011719 -2.625 C 0.867188 -2.625 0.359375 -2.160156 0.359375 -1.382812 L 0.359375 -1.191406 C 0.359375 -0.414062 0.867188 0.0507812 1.953125 0.0507812 Z M 2.011719 -1.359375 C 1.578125 -1.359375 1.042969 -1.414062 0.628906 -1.484375 C 0.664062 -2.058594 1.0625 -2.382812 2.011719 -2.382812 C 2.824219 -2.382812 3.191406 -2.179688 3.191406 -1.890625 L 3.191406 -1.808594 C 3.191406 -1.464844 2.648438 -1.359375 2.011719 -1.359375 Z M 2.011719 -1.359375 "/></g></g></g><g fill="#af294d" fill-opacity="1"><g transform="translate(154.876712, 105.832388)"><g><path d="M 1.953125 0.0507812 C 2.898438 0.0507812 3.460938 -0.316406 3.523438 -0.921875 L 3.25 -0.921875 C 3.1875 -0.429688 2.703125 -0.1875 1.953125 -0.1875 C 1.082031 -0.1875 0.59375 -0.511719 0.628906 -1.246094 C 1.082031 -1.171875 1.59375 -1.125 2.003906 -1.125 C 2.800781 -1.125 3.460938 -1.320312 3.460938 -1.792969 L 3.460938 -1.902344 C 3.460938 -2.351562 2.898438 -2.625 2.011719 -2.625 C 0.867188 -2.625 0.359375 -2.160156 0.359375 -1.382812 L 0.359375 -1.191406 C 0.359375 -0.414062 0.867188 0.0507812 1.953125 0.0507812 Z M 2.011719 -1.359375 C 1.578125 -1.359375 1.042969 -1.414062 0.628906 -1.484375 C 0.664062 -2.058594 1.0625 -2.382812 2.011719 -2.382812 C 2.824219 -2.382812 3.191406 -2.179688 3.191406 -1.890625 L 3.191406 -1.808594 C 3.191406 -1.464844 2.648438 -1.359375 2.011719 -1.359375 Z M 2.011719 -1.359375 "/></g></g></g></svg>