<svg xmlns="http://www.w3.org/2000/svg" xmlns:xlink="http://www.w3.org/1999/xlink" width="40" zoomAndPan="magnify" viewBox="0 0 30 30.000001" height="40" preserveAspectRatio="xMidYMid meet" version="1.0"><defs><clipPath id="af91b625c6"><path d="M 4.722656 2.902344 L 25.046875 2.902344 L 25.046875 26.128906 L 4.722656 26.128906 Z M 4.722656 2.902344 " clip-rule="nonzero"/></clipPath></defs><g clip-path="url(#af91b625c6)"><path fill="#fcf5eb" d="M 22.59375 5.605469 L 22.296875 5.605469 L 22.296875 4.648438 C 22.296875 4.414062 22.253906 4.191406 22.164062 3.976562 C 22.074219 3.761719 21.949219 3.570312 21.785156 3.40625 C 21.625 3.242188 21.4375 3.117188 21.222656 3.027344 C 21.011719 2.9375 20.789062 2.894531 20.558594 2.894531 C 20.328125 2.894531 20.109375 2.9375 19.894531 3.027344 C 19.683594 3.117188 19.496094 3.242188 19.332031 3.40625 C 19.171875 3.570312 19.042969 3.761719 18.957031 3.976562 C 18.867188 4.191406 18.824219 4.414062 18.824219 4.648438 L 18.824219 5.605469 L 10.945312 5.605469 L 10.945312 4.648438 C 10.945312 4.414062 10.898438 4.191406 10.8125 3.976562 C 10.722656 3.761719 10.597656 3.570312 10.433594 3.40625 C 10.273438 3.242188 10.085938 3.117188 9.871094 3.027344 C 9.660156 2.9375 9.4375 2.894531 9.207031 2.894531 C 8.976562 2.894531 8.757812 2.9375 8.542969 3.027344 C 8.332031 3.117188 8.144531 3.242188 7.980469 3.40625 C 7.816406 3.570312 7.691406 3.761719 7.605469 3.976562 C 7.515625 4.191406 7.472656 4.414062 7.472656 4.648438 L 7.472656 5.605469 L 7.171875 5.605469 C 6.851562 5.605469 6.539062 5.667969 6.242188 5.792969 C 5.945312 5.917969 5.683594 6.09375 5.453125 6.324219 C 5.226562 6.554688 5.050781 6.820312 4.925781 7.121094 C 4.804688 7.425781 4.742188 7.738281 4.742188 8.0625 L 4.742188 23.65625 C 4.742188 23.984375 4.804688 24.296875 4.925781 24.597656 C 5.050781 24.898438 5.226562 25.164062 5.453125 25.394531 C 5.683594 25.625 5.945312 25.800781 6.242188 25.925781 C 6.542969 26.050781 6.851562 26.113281 7.171875 26.113281 L 22.59375 26.113281 C 22.917969 26.113281 23.226562 26.050781 23.523438 25.925781 C 23.820312 25.800781 24.085938 25.625 24.3125 25.394531 C 24.542969 25.164062 24.71875 24.898438 24.839844 24.597656 C 24.964844 24.296875 25.027344 23.984375 25.027344 23.65625 L 25.027344 8.0625 C 25.027344 7.738281 24.964844 7.425781 24.839844 7.121094 C 24.71875 6.820312 24.542969 6.554688 24.3125 6.324219 C 24.085938 6.09375 23.824219 5.917969 23.523438 5.792969 C 23.226562 5.667969 22.917969 5.605469 22.59375 5.605469 Z M 19.707031 4.648438 C 19.707031 4.472656 19.757812 4.3125 19.851562 4.167969 C 19.949219 4.023438 20.078125 3.917969 20.234375 3.851562 C 20.394531 3.785156 20.558594 3.769531 20.726562 3.804688 C 20.898438 3.839844 21.042969 3.917969 21.164062 4.039062 C 21.332031 4.207031 21.414062 4.410156 21.414062 4.648438 L 21.414062 6.605469 C 21.414062 6.84375 21.328125 7.046875 21.164062 7.214844 C 20.996094 7.382812 20.796875 7.46875 20.5625 7.46875 C 20.324219 7.46875 20.125 7.382812 19.957031 7.214844 C 19.792969 7.046875 19.707031 6.84375 19.707031 6.605469 Z M 8.355469 4.648438 C 8.355469 4.472656 8.40625 4.3125 8.5 4.167969 C 8.597656 4.023438 8.722656 3.917969 8.882812 3.851562 C 9.042969 3.785156 9.207031 3.769531 9.375 3.804688 C 9.546875 3.839844 9.691406 3.917969 9.8125 4.039062 C 9.980469 4.207031 10.0625 4.410156 10.0625 4.648438 L 10.0625 6.605469 C 10.0625 6.84375 9.976562 7.046875 9.8125 7.214844 C 9.644531 7.382812 9.445312 7.464844 9.210938 7.464844 C 8.972656 7.464844 8.773438 7.382812 8.605469 7.214844 C 8.441406 7.046875 8.355469 6.84375 8.355469 6.605469 Z M 7.171875 6.5 L 7.472656 6.5 L 7.472656 6.605469 C 7.472656 6.839844 7.515625 7.0625 7.601562 7.277344 C 7.691406 7.492188 7.816406 7.683594 7.980469 7.847656 C 8.144531 8.011719 8.332031 8.140625 8.542969 8.226562 C 8.757812 8.316406 8.976562 8.363281 9.207031 8.363281 C 9.4375 8.363281 9.660156 8.316406 9.871094 8.226562 C 10.085938 8.140625 10.273438 8.011719 10.4375 7.847656 C 10.597656 7.683594 10.722656 7.492188 10.8125 7.277344 C 10.902344 7.0625 10.945312 6.839844 10.945312 6.605469 L 10.945312 6.5 L 18.824219 6.5 L 18.824219 6.605469 C 18.824219 6.839844 18.867188 7.0625 18.957031 7.277344 C 19.042969 7.492188 19.167969 7.683594 19.332031 7.847656 C 19.496094 8.011719 19.683594 8.140625 19.894531 8.226562 C 20.109375 8.316406 20.328125 8.363281 20.558594 8.363281 C 20.789062 8.363281 21.011719 8.316406 21.222656 8.226562 C 21.4375 8.140625 21.625 8.011719 21.789062 7.847656 C 21.949219 7.683594 22.078125 7.492188 22.164062 7.277344 C 22.253906 7.0625 22.296875 6.839844 22.296875 6.605469 L 22.296875 6.5 L 22.59375 6.5 C 22.800781 6.5 22.996094 6.539062 23.1875 6.617188 C 23.375 6.699219 23.542969 6.8125 23.6875 6.957031 C 23.832031 7.105469 23.945312 7.273438 24.023438 7.464844 C 24.101562 7.65625 24.140625 7.855469 24.140625 8.0625 L 24.140625 9.761719 L 5.625 9.761719 L 5.625 8.0625 C 5.625 7.855469 5.664062 7.65625 5.742188 7.464844 C 5.820312 7.273438 5.933594 7.105469 6.078125 6.957031 C 6.222656 6.8125 6.390625 6.699219 6.582031 6.617188 C 6.769531 6.539062 6.96875 6.5 7.171875 6.5 Z M 24.140625 23.65625 C 24.140625 23.863281 24.101562 24.0625 24.023438 24.253906 C 23.945312 24.445312 23.832031 24.613281 23.6875 24.761719 C 23.542969 24.90625 23.375 25.019531 23.1875 25.101562 C 22.996094 25.179688 22.800781 25.21875 22.59375 25.21875 L 7.171875 25.21875 C 6.96875 25.21875 6.769531 25.179688 6.582031 25.101562 C 6.390625 25.019531 6.226562 24.90625 6.078125 24.761719 C 5.933594 24.613281 5.824219 24.445312 5.742188 24.253906 C 5.664062 24.0625 5.625 23.863281 5.625 23.65625 L 5.625 10.65625 L 24.140625 10.65625 Z M 24.140625 23.65625 " fill-opacity="1" fill-rule="nonzero"/></g><path fill="#fcf5eb" d="M 11.824219 22.6875 L 21.003906 22.6875 C 21.128906 22.6875 21.230469 22.644531 21.316406 22.558594 C 21.40625 22.46875 21.449219 22.363281 21.449219 22.242188 L 21.449219 12.957031 C 21.449219 12.832031 21.40625 12.726562 21.316406 12.640625 C 21.230469 12.550781 21.128906 12.507812 21.003906 12.507812 L 8.761719 12.507812 C 8.640625 12.507812 8.535156 12.550781 8.449219 12.640625 C 8.363281 12.726562 8.320312 12.832031 8.320312 12.957031 L 8.320312 22.242188 C 8.320312 22.363281 8.363281 22.46875 8.449219 22.558594 C 8.535156 22.644531 8.640625 22.6875 8.761719 22.6875 Z M 20.5625 18.699219 L 18.386719 18.699219 L 18.386719 16.5 L 20.5625 16.5 Z M 17.503906 18.699219 L 15.324219 18.699219 L 15.324219 16.5 L 17.503906 16.5 Z M 14.441406 18.699219 L 12.265625 18.699219 L 12.265625 16.5 L 14.441406 16.5 Z M 11.382812 18.699219 L 9.203125 18.699219 L 9.203125 16.5 L 11.382812 16.5 Z M 9.203125 19.59375 L 11.382812 19.59375 L 11.382812 21.792969 L 9.203125 21.792969 Z M 12.265625 19.59375 L 14.441406 19.59375 L 14.441406 21.792969 L 12.265625 21.792969 Z M 15.324219 19.59375 L 17.503906 19.59375 L 17.503906 21.792969 L 15.324219 21.792969 Z M 20.5625 21.792969 L 18.386719 21.792969 L 18.386719 19.59375 L 20.5625 19.59375 Z M 20.5625 15.605469 L 18.386719 15.605469 L 18.386719 13.402344 L 20.5625 13.402344 Z M 17.503906 15.605469 L 15.324219 15.605469 L 15.324219 13.402344 L 17.503906 13.402344 Z M 14.441406 15.605469 L 12.265625 15.605469 L 12.265625 13.402344 L 14.441406 13.402344 Z M 9.203125 13.402344 L 11.382812 13.402344 L 11.382812 15.605469 L 9.203125 15.605469 Z M 9.203125 13.402344 " fill-opacity="1" fill-rule="nonzero"/></svg>