<svg xmlns="http://www.w3.org/2000/svg" xmlns:xlink="http://www.w3.org/1999/xlink" width="40" zoomAndPan="magnify" viewBox="0 0 30 30.000001" height="40" preserveAspectRatio="xMidYMid meet" version="1.0"><defs><clipPath id="ba3d23f42d"><path d="M 7 13 L 24.683594 13 L 24.683594 26.128906 L 7 26.128906 Z M 7 13 " clip-rule="nonzero"/></clipPath><clipPath id="6206788c29"><path d="M 5.085938 2.902344 L 23 2.902344 L 23 17 L 5.085938 17 Z M 5.085938 2.902344 " clip-rule="nonzero"/></clipPath></defs><g clip-path="url(#ba3d23f42d)"><path fill="#fcf5eb" d="M 24.265625 19.367188 C 24.203125 19.164062 23.992188 19.046875 23.789062 19.109375 C 23.574219 19.175781 23.34375 19.050781 23.277344 18.832031 C 23.246094 18.726562 23.257812 18.617188 23.308594 18.519531 C 23.359375 18.421875 23.445312 18.347656 23.550781 18.316406 C 23.753906 18.253906 23.867188 18.039062 23.804688 17.835938 L 23.445312 16.636719 C 23.386719 16.429688 23.171875 16.316406 22.96875 16.378906 C 22.863281 16.410156 22.753906 16.398438 22.65625 16.347656 C 22.558594 16.292969 22.488281 16.207031 22.457031 16.101562 C 22.425781 15.996094 22.4375 15.882812 22.488281 15.785156 C 22.539062 15.6875 22.625 15.617188 22.730469 15.585938 C 22.828125 15.554688 22.910156 15.488281 22.957031 15.398438 C 23.003906 15.304688 23.015625 15.199219 22.984375 15.101562 L 22.625 13.902344 C 22.597656 13.804688 22.53125 13.722656 22.441406 13.671875 C 22.351562 13.625 22.246094 13.613281 22.148438 13.644531 C 22.042969 13.675781 21.933594 13.664062 21.835938 13.613281 C 21.742188 13.5625 21.671875 13.472656 21.640625 13.367188 C 21.578125 13.164062 21.363281 13.050781 21.160156 13.109375 L 12.183594 15.867188 C 11.980469 15.925781 11.867188 16.144531 11.925781 16.347656 C 11.988281 16.554688 12.203125 16.667969 12.402344 16.605469 L 18.734375 14.664062 L 18.976562 15.46875 C 19.007812 15.582031 19.109375 15.652344 19.21875 15.652344 C 19.242188 15.652344 19.269531 15.648438 19.292969 15.640625 C 19.429688 15.601562 19.503906 15.457031 19.464844 15.320312 L 19.222656 14.515625 L 21.078125 13.945312 C 21.183594 14.089844 21.316406 14.210938 21.476562 14.296875 C 21.636719 14.382812 21.8125 14.429688 21.988281 14.4375 L 22.160156 15.015625 C 22.019531 15.121094 21.898438 15.257812 21.816406 15.421875 C 21.667969 15.699219 21.636719 16.023438 21.726562 16.324219 C 21.816406 16.628906 22.019531 16.878906 22.296875 17.027344 C 22.457031 17.113281 22.628906 17.160156 22.808594 17.167969 L 22.980469 17.75 C 22.835938 17.855469 22.71875 17.992188 22.632812 18.152344 C 22.484375 18.433594 22.453125 18.753906 22.546875 19.058594 C 22.695312 19.554688 23.140625 19.882812 23.625 19.898438 L 23.800781 20.484375 C 23.507812 20.695312 23.328125 21.035156 23.316406 21.402344 L 21.457031 21.972656 L 21.214844 21.164062 C 21.175781 21.03125 21.035156 20.953125 20.898438 20.992188 C 20.761719 21.035156 20.6875 21.179688 20.726562 21.316406 L 20.96875 22.121094 L 10.679688 25.277344 C 10.46875 24.984375 10.128906 24.800781 9.769531 24.785156 L 9.597656 24.203125 C 9.738281 24.101562 9.859375 23.964844 9.941406 23.800781 C 10.089844 23.523438 10.121094 23.199219 10.03125 22.898438 C 9.941406 22.59375 9.738281 22.34375 9.460938 22.195312 C 9.300781 22.109375 9.128906 22.058594 8.949219 22.054688 L 8.777344 21.472656 C 8.917969 21.367188 9.039062 21.230469 9.125 21.070312 C 9.273438 20.789062 9.304688 20.46875 9.210938 20.164062 C 9.0625 19.667969 8.617188 19.339844 8.132812 19.324219 L 7.957031 18.738281 C 8.25 18.527344 8.429688 18.183594 8.441406 17.820312 L 10.113281 17.308594 C 10.316406 17.246094 10.429688 17.03125 10.367188 16.828125 C 10.308594 16.621094 10.09375 16.507812 9.890625 16.566406 L 7.914062 17.175781 C 7.816406 17.203125 7.738281 17.273438 7.6875 17.363281 C 7.640625 17.453125 7.632812 17.558594 7.660156 17.65625 C 7.726562 17.875 7.605469 18.105469 7.386719 18.171875 C 7.183594 18.234375 7.070312 18.453125 7.132812 18.65625 L 7.492188 19.855469 C 7.554688 20.058594 7.765625 20.175781 7.96875 20.113281 C 8.183594 20.046875 8.414062 20.171875 8.480469 20.390625 C 8.511719 20.496094 8.5 20.605469 8.449219 20.703125 C 8.398438 20.800781 8.3125 20.875 8.207031 20.90625 C 8.109375 20.933594 8.027344 21.003906 7.980469 21.09375 C 7.933594 21.183594 7.921875 21.289062 7.953125 21.386719 L 8.3125 22.585938 C 8.371094 22.792969 8.585938 22.90625 8.789062 22.84375 C 8.890625 22.8125 9.003906 22.824219 9.101562 22.875 C 9.195312 22.929688 9.265625 23.015625 9.296875 23.121094 C 9.332031 23.226562 9.320312 23.339844 9.269531 23.4375 C 9.214844 23.535156 9.128906 23.605469 9.027344 23.636719 C 8.929688 23.667969 8.847656 23.734375 8.800781 23.824219 C 8.75 23.917969 8.742188 24.023438 8.769531 24.121094 L 9.128906 25.320312 C 9.160156 25.417969 9.226562 25.5 9.316406 25.550781 C 9.40625 25.597656 9.511719 25.605469 9.609375 25.578125 C 9.824219 25.511719 10.050781 25.636719 10.117188 25.855469 C 10.167969 26.019531 10.320312 26.128906 10.484375 26.128906 C 10.519531 26.128906 10.558594 26.125 10.59375 26.113281 L 23.839844 22.046875 C 24.042969 21.984375 24.15625 21.769531 24.097656 21.566406 C 24.03125 21.347656 24.152344 21.117188 24.371094 21.050781 C 24.46875 21.019531 24.546875 20.953125 24.597656 20.859375 C 24.644531 20.769531 24.652344 20.664062 24.625 20.566406 Z M 24.265625 19.367188 " fill-opacity="1" fill-rule="nonzero"/></g><path fill="#fcf5eb" d="M 11.070312 17 C 11.105469 17 11.144531 16.992188 11.179688 16.980469 L 11.324219 16.9375 C 11.527344 16.875 11.644531 16.660156 11.582031 16.453125 C 11.519531 16.25 11.308594 16.132812 11.105469 16.195312 L 10.957031 16.242188 C 10.753906 16.304688 10.640625 16.519531 10.703125 16.722656 C 10.753906 16.890625 10.90625 17 11.070312 17 Z M 11.070312 17 " fill-opacity="1" fill-rule="nonzero"/><path fill="#fcf5eb" d="M 20.027344 18.976562 L 20.378906 20.152344 C 20.410156 20.261719 20.511719 20.332031 20.621094 20.332031 C 20.648438 20.332031 20.671875 20.332031 20.695312 20.324219 C 20.832031 20.28125 20.90625 20.136719 20.867188 20 L 20.515625 18.824219 C 20.472656 18.6875 20.332031 18.613281 20.195312 18.652344 C 20.0625 18.695312 19.984375 18.839844 20.027344 18.976562 Z M 20.027344 18.976562 " fill-opacity="1" fill-rule="nonzero"/><path fill="#fcf5eb" d="M 19.8125 16.484375 C 19.773438 16.347656 19.628906 16.269531 19.496094 16.3125 C 19.359375 16.355469 19.285156 16.5 19.324219 16.632812 L 19.675781 17.808594 C 19.710938 17.921875 19.8125 17.992188 19.921875 17.992188 C 19.945312 17.992188 19.96875 17.988281 19.996094 17.980469 C 20.128906 17.941406 20.207031 17.796875 20.164062 17.660156 Z M 19.8125 16.484375 " fill-opacity="1" fill-rule="nonzero"/><path fill="#fcf5eb" d="M 15.265625 18.449219 L 14.464844 17.800781 C 14.253906 17.625 13.933594 17.726562 13.847656 17.988281 L 13.539062 18.976562 L 12.6875 19.546875 C 12.457031 19.699219 12.449219 20.035156 12.671875 20.195312 L 13.503906 20.800781 L 13.777344 21.796875 C 13.847656 22.066406 14.164062 22.175781 14.382812 22.011719 L 15.207031 21.394531 L 16.230469 21.445312 C 16.503906 21.457031 16.707031 21.1875 16.617188 20.925781 L 16.296875 19.941406 L 16.65625 18.976562 C 16.753906 18.714844 16.5625 18.4375 16.289062 18.441406 Z M 15.265625 18.449219 " fill-opacity="1" fill-rule="nonzero"/><path fill="#fcf5eb" d="M 15.636719 22.820312 C 15.089844 22.988281 14.515625 22.996094 13.972656 22.839844 C 13.839844 22.800781 13.699219 22.882812 13.660156 23.019531 C 13.621094 23.15625 13.699219 23.296875 13.835938 23.335938 C 14.144531 23.421875 14.457031 23.46875 14.773438 23.46875 C 15.113281 23.46875 15.453125 23.417969 15.78125 23.316406 C 16.671875 23.042969 17.402344 22.4375 17.839844 21.609375 C 18.277344 20.78125 18.371094 19.828125 18.101562 18.929688 C 17.867188 18.15625 17.375 17.484375 16.714844 17.03125 C 16.597656 16.953125 16.4375 16.984375 16.359375 17.101562 C 16.28125 17.222656 16.3125 17.382812 16.429688 17.460938 C 16.996094 17.84375 17.414062 18.417969 17.613281 19.078125 C 17.84375 19.847656 17.765625 20.65625 17.390625 21.363281 C 17.015625 22.070312 16.394531 22.589844 15.636719 22.820312 Z M 15.636719 22.820312 " fill-opacity="1" fill-rule="nonzero"/><path fill="#fcf5eb" d="M 13.191406 22.488281 C 13.070312 22.414062 12.914062 22.449219 12.839844 22.570312 C 12.765625 22.691406 12.800781 22.851562 12.921875 22.925781 L 13.007812 22.980469 C 13.046875 23.003906 13.09375 23.015625 13.136719 23.015625 C 13.222656 23.015625 13.308594 22.96875 13.355469 22.886719 C 13.429688 22.765625 13.386719 22.605469 13.265625 22.535156 Z M 13.191406 22.488281 " fill-opacity="1" fill-rule="nonzero"/><path fill="#fcf5eb" d="M 15.929688 16.632812 C 15.226562 16.382812 14.480469 16.367188 13.765625 16.585938 C 11.929688 17.148438 10.890625 19.117188 11.449219 20.972656 C 11.601562 21.484375 11.863281 21.945312 12.222656 22.339844 C 12.273438 22.394531 12.339844 22.421875 12.410156 22.421875 C 12.472656 22.421875 12.53125 22.398438 12.582031 22.351562 C 12.6875 22.253906 12.691406 22.09375 12.597656 21.988281 C 12.289062 21.652344 12.066406 21.261719 11.9375 20.820312 C 11.460938 19.238281 12.347656 17.558594 13.914062 17.078125 C 14.523438 16.890625 15.160156 16.90625 15.761719 17.121094 C 15.894531 17.167969 16.039062 17.097656 16.085938 16.964844 C 16.132812 16.828125 16.0625 16.679688 15.929688 16.632812 Z M 15.929688 16.632812 " fill-opacity="1" fill-rule="nonzero"/><g clip-path="url(#6206788c29)"><path fill="#fcf5eb" d="M 7.855469 16.429688 C 7.957031 16.441406 8.058594 16.417969 8.140625 16.355469 C 8.308594 16.230469 8.542969 16.253906 8.6875 16.410156 C 8.761719 16.492188 8.863281 16.535156 8.96875 16.535156 C 9.0625 16.535156 9.15625 16.5 9.226562 16.433594 C 9.382812 16.285156 9.390625 16.042969 9.25 15.886719 C 8.929688 15.539062 8.453125 15.421875 8.03125 15.554688 L 7.675781 15.066406 C 7.949219 14.660156 7.957031 14.105469 7.652344 13.6875 C 7.347656 13.269531 6.820312 13.113281 6.355469 13.261719 L 5.996094 12.769531 C 6.199219 12.46875 6.257812 12.089844 6.148438 11.742188 L 14.796875 5.273438 L 15.292969 5.953125 C 15.34375 6.019531 15.417969 6.054688 15.496094 6.054688 C 15.550781 6.054688 15.605469 6.039062 15.648438 6.003906 C 15.761719 5.921875 15.785156 5.757812 15.703125 5.644531 L 15.207031 4.96875 L 16.769531 3.800781 C 17.066406 4.007812 17.445312 4.0625 17.789062 3.957031 L 18.144531 4.445312 C 18.042969 4.589844 17.976562 4.761719 17.949219 4.941406 C 17.90625 5.253906 17.980469 5.570312 18.167969 5.824219 C 18.355469 6.078125 18.628906 6.246094 18.9375 6.292969 C 19.117188 6.320312 19.296875 6.304688 19.464844 6.25 L 19.824219 6.742188 C 19.546875 7.148438 19.539062 7.703125 19.847656 8.121094 C 20.152344 8.539062 20.679688 8.695312 21.144531 8.546875 L 21.5 9.035156 C 21.296875 9.335938 21.238281 9.71875 21.347656 10.066406 L 19.785156 11.234375 L 19.292969 10.558594 C 19.207031 10.441406 19.046875 10.417969 18.933594 10.503906 C 18.824219 10.585938 18.796875 10.75 18.882812 10.863281 L 19.375 11.539062 L 16.785156 13.476562 C 16.613281 13.605469 16.578125 13.847656 16.703125 14.019531 C 16.828125 14.191406 17.070312 14.226562 17.238281 14.101562 L 22.058594 10.496094 C 22.226562 10.371094 22.265625 10.128906 22.136719 9.957031 C 22.003906 9.773438 22.042969 9.511719 22.222656 9.375 C 22.394531 9.25 22.429688 9.007812 22.304688 8.835938 L 21.570312 7.828125 C 21.441406 7.65625 21.203125 7.621094 21.035156 7.746094 C 20.851562 7.882812 20.59375 7.84375 20.460938 7.660156 C 20.328125 7.476562 20.367188 7.214844 20.546875 7.082031 C 20.628906 7.019531 20.683594 6.929688 20.699219 6.828125 C 20.714844 6.726562 20.6875 6.621094 20.628906 6.539062 L 19.890625 5.53125 C 19.832031 5.449219 19.742188 5.394531 19.640625 5.378906 C 19.539062 5.363281 19.4375 5.390625 19.355469 5.449219 C 19.269531 5.515625 19.160156 5.542969 19.050781 5.527344 C 18.945312 5.511719 18.847656 5.453125 18.785156 5.363281 C 18.71875 5.273438 18.691406 5.164062 18.707031 5.054688 C 18.722656 4.945312 18.78125 4.851562 18.871094 4.785156 C 19.039062 4.65625 19.074219 4.414062 18.949219 4.242188 L 18.214844 3.234375 C 18.085938 3.0625 17.847656 3.027344 17.679688 3.15625 C 17.496094 3.289062 17.238281 3.25 17.105469 3.066406 C 17.046875 2.984375 16.953125 2.929688 16.855469 2.914062 C 16.753906 2.898438 16.652344 2.925781 16.570312 2.988281 L 5.4375 11.308594 C 5.269531 11.4375 5.234375 11.679688 5.359375 11.851562 C 5.492188 12.035156 5.453125 12.292969 5.273438 12.429688 C 5.191406 12.492188 5.136719 12.582031 5.121094 12.683594 C 5.105469 12.785156 5.132812 12.890625 5.191406 12.972656 L 5.929688 13.980469 C 5.988281 14.0625 6.078125 14.117188 6.179688 14.132812 C 6.28125 14.148438 6.382812 14.121094 6.464844 14.058594 C 6.644531 13.925781 6.902344 13.964844 7.035156 14.148438 C 7.171875 14.332031 7.132812 14.589844 6.949219 14.726562 C 6.78125 14.851562 6.746094 15.097656 6.871094 15.265625 L 7.605469 16.273438 C 7.667969 16.359375 7.757812 16.414062 7.855469 16.429688 Z M 7.855469 16.429688 " fill-opacity="1" fill-rule="nonzero"/></g><path fill="#fcf5eb" d="M 18.371094 9.988281 C 18.425781 9.988281 18.476562 9.972656 18.523438 9.9375 C 18.636719 9.855469 18.660156 9.691406 18.578125 9.578125 L 17.855469 8.589844 C 17.769531 8.476562 17.613281 8.453125 17.5 8.535156 C 17.386719 8.621094 17.359375 8.78125 17.445312 8.898438 L 18.167969 9.886719 C 18.214844 9.953125 18.292969 9.988281 18.371094 9.988281 Z M 18.371094 9.988281 " fill-opacity="1" fill-rule="nonzero"/><path fill="#fcf5eb" d="M 16.933594 8.023438 C 16.988281 8.023438 17.039062 8.007812 17.085938 7.972656 C 17.199219 7.886719 17.222656 7.726562 17.140625 7.613281 L 16.417969 6.625 C 16.335938 6.507812 16.175781 6.484375 16.0625 6.570312 C 15.949219 6.652344 15.925781 6.816406 16.007812 6.929688 L 16.730469 7.917969 C 16.78125 7.988281 16.855469 8.023438 16.933594 8.023438 Z M 16.933594 8.023438 " fill-opacity="1" fill-rule="nonzero"/><path fill="#fcf5eb" d="M 13.136719 13.671875 L 13.707031 12.8125 L 14.6875 12.511719 C 14.949219 12.429688 15.050781 12.109375 14.882812 11.890625 L 14.25 11.074219 L 14.269531 10.039062 C 14.277344 9.761719 14.003906 9.566406 13.746094 9.660156 L 12.785156 10.015625 L 11.816406 9.675781 C 11.558594 9.585938 11.289062 9.785156 11.300781 10.066406 L 11.335938 11.097656 L 10.71875 11.925781 C 10.554688 12.144531 10.660156 12.46875 10.921875 12.542969 L 11.90625 12.828125 L 12.492188 13.675781 C 12.648438 13.90625 12.984375 13.902344 13.136719 13.671875 Z M 13.136719 13.671875 " fill-opacity="1" fill-rule="nonzero"/><path fill="#fcf5eb" d="M 13.042969 15.105469 C 13.046875 15.105469 13.054688 15.105469 13.058594 15.105469 C 13.71875 15.0625 14.351562 14.824219 14.886719 14.425781 C 16.429688 13.273438 16.753906 11.066406 15.617188 9.507812 C 15.140625 8.859375 14.453125 8.390625 13.679688 8.191406 C 13.542969 8.15625 13.40625 8.238281 13.371094 8.375 C 13.335938 8.515625 13.417969 8.65625 13.554688 8.691406 C 14.214844 8.859375 14.800781 9.257812 15.207031 9.8125 C 16.179688 11.144531 15.898438 13.027344 14.582031 14.011719 C 14.128906 14.351562 13.589844 14.550781 13.023438 14.589844 C 12.882812 14.601562 12.777344 14.722656 12.789062 14.867188 C 12.796875 15.003906 12.910156 15.105469 13.042969 15.105469 Z M 13.042969 15.105469 " fill-opacity="1" fill-rule="nonzero"/><path fill="#fcf5eb" d="M 12.171875 14.527344 C 12.035156 14.496094 11.898438 14.582031 11.867188 14.722656 C 11.835938 14.859375 11.921875 14.996094 12.058594 15.027344 C 12.09375 15.035156 12.128906 15.042969 12.160156 15.050781 C 12.175781 15.054688 12.195312 15.054688 12.210938 15.054688 C 12.328125 15.054688 12.4375 14.96875 12.460938 14.84375 C 12.484375 14.707031 12.394531 14.570312 12.257812 14.542969 C 12.230469 14.539062 12.199219 14.53125 12.171875 14.527344 Z M 12.171875 14.527344 " fill-opacity="1" fill-rule="nonzero"/><path fill="#fcf5eb" d="M 11.058594 9.183594 C 11.570312 8.800781 12.175781 8.597656 12.8125 8.597656 C 12.953125 8.597656 13.066406 8.480469 13.066406 8.339844 C 13.066406 8.195312 12.953125 8.082031 12.8125 8.082031 C 12.066406 8.082031 11.355469 8.320312 10.753906 8.769531 C 9.210938 9.921875 8.886719 12.128906 10.023438 13.6875 C 10.339844 14.121094 10.738281 14.464844 11.207031 14.714844 C 11.246094 14.734375 11.285156 14.742188 11.324219 14.742188 C 11.417969 14.742188 11.507812 14.691406 11.550781 14.605469 C 11.617188 14.476562 11.570312 14.324219 11.445312 14.257812 C 11.042969 14.046875 10.707031 13.75 10.433594 13.382812 C 9.464844 12.050781 9.742188 10.167969 11.058594 9.183594 Z M 11.058594 9.183594 " fill-opacity="1" fill-rule="nonzero"/></svg>