<svg xmlns="http://www.w3.org/2000/svg" xmlns:xlink="http://www.w3.org/1999/xlink" width="312" zoomAndPan="magnify" viewBox="0 0 234 211.499994" height="282" preserveAspectRatio="xMidYMid meet" version="1.0"><defs><g/></defs><g fill="#ba4b2f" fill-opacity="1"><g transform="translate(76.57008, 101.778693)"><g><path d="M 45.6875 4.578125 C 45.695312 4.578125 45.722656 4.578125 45.765625 4.578125 C 45.878906 4.597656 45.988281 4.625 46.09375 4.65625 C 46.207031 4.6875 46.304688 4.753906 46.390625 4.859375 C 46.421875 4.890625 46.445312 4.929688 46.46875 4.984375 C 46.488281 5.035156 46.488281 5.085938 46.46875 5.140625 C 46.445312 5.191406 46.414062 5.238281 46.375 5.28125 C 46.332031 5.320312 46.296875 5.34375 46.265625 5.34375 C 46.054688 5.375 45.847656 5.375 45.640625 5.34375 C 40.472656 4.269531 34.75 3.578125 28.46875 3.265625 C 22.195312 2.953125 16.40625 3.066406 11.09375 3.609375 C 10.851562 3.628906 10.625 3.65625 10.40625 3.6875 C 10.207031 3.707031 10.015625 3.722656 9.828125 3.734375 C 9.234375 3.816406 8.726562 4.078125 8.3125 4.515625 C 7.351562 5.554688 6.300781 6.472656 5.15625 7.265625 C 4.257812 7.867188 3.269531 8.207031 2.1875 8.28125 C 1.738281 8.3125 1.3125 8.242188 0.90625 8.078125 C 0.519531 7.910156 0.269531 7.65625 0.15625 7.3125 C 0.0507812 6.976562 0.101562 6.617188 0.3125 6.234375 C 0.644531 5.679688 1.203125 5.210938 1.984375 4.828125 C 2.765625 4.441406 3.59375 4.125 4.46875 3.875 C 5.351562 3.625 6.097656 3.441406 6.703125 3.328125 C 7.515625 3.179688 8.175781 2.785156 8.6875 2.140625 C 11.132812 -0.835938 13.488281 -4.210938 15.75 -7.984375 C 18.019531 -11.753906 20.109375 -15.632812 22.015625 -19.625 C 23.929688 -23.625 25.578125 -27.445312 26.953125 -31.09375 C 27.003906 -31.289062 27.082031 -31.457031 27.1875 -31.59375 C 27.300781 -31.738281 27.46875 -31.835938 27.6875 -31.890625 C 27.894531 -31.921875 28.070312 -31.878906 28.21875 -31.765625 C 28.375 -31.660156 28.4375 -31.507812 28.40625 -31.3125 C 28.332031 -30.832031 28.210938 -30.363281 28.046875 -29.90625 C 26.734375 -26.4375 25.171875 -22.820312 23.359375 -19.0625 C 21.554688 -15.3125 19.59375 -11.648438 17.46875 -8.078125 C 15.351562 -4.515625 13.164062 -1.285156 10.90625 1.609375 C 10.4375 2.191406 10.296875 2.53125 10.484375 2.625 C 10.671875 2.726562 11.03125 2.726562 11.5625 2.625 C 11.6875 2.601562 11.804688 2.585938 11.921875 2.578125 C 16.148438 2.097656 20.535156 1.953125 25.078125 2.140625 C 29.628906 2.328125 34.113281 2.722656 38.53125 3.328125 C 40.082031 3.554688 41.601562 3.8125 43.09375 4.09375 C 43.96875 4.257812 44.832031 4.421875 45.6875 4.578125 Z M 2.8125 7.1875 C 4.101562 6.664062 5.171875 5.835938 6.015625 4.703125 C 4.628906 4.804688 3.394531 5.238281 2.3125 6 C 1.96875 6.25 1.765625 6.492188 1.703125 6.734375 C 1.648438 6.972656 1.722656 7.144531 1.921875 7.25 C 2.117188 7.363281 2.414062 7.34375 2.8125 7.1875 Z M 2.8125 7.1875 "/></g></g></g><g fill="#ba4b2f" fill-opacity="1"><g transform="translate(97.911061, 101.778693)"><g><path d="M 4.578125 -4.859375 C 4.171875 -4.367188 3.6875 -3.921875 3.125 -3.515625 C 2.5625 -3.109375 1.925781 -2.832031 1.21875 -2.6875 C 0.507812 -2.550781 -0.0351562 -2.601562 -0.421875 -2.84375 C -0.816406 -3.09375 -0.894531 -3.640625 -0.65625 -4.484375 C -0.351562 -5.359375 0.0664062 -6.191406 0.609375 -6.984375 C 0.734375 -7.160156 0.910156 -7.28125 1.140625 -7.34375 C 1.304688 -7.382812 1.453125 -7.359375 1.578125 -7.265625 C 1.710938 -7.171875 1.765625 -7.046875 1.734375 -6.890625 C 1.617188 -6.617188 1.488281 -6.34375 1.34375 -6.0625 C 1.207031 -5.789062 1.117188 -5.613281 1.078125 -5.53125 C 0.804688 -5.03125 0.613281 -4.515625 0.5 -3.984375 C 0.5 -3.671875 0.910156 -3.648438 1.734375 -3.921875 C 2.554688 -4.191406 3.359375 -4.6875 4.140625 -5.40625 C 4.921875 -6.125 5.289062 -6.332031 5.25 -6.03125 C 5.21875 -5.738281 4.992188 -5.347656 4.578125 -4.859375 Z M 2.578125 -8.71875 C 2.535156 -8.6875 2.453125 -8.648438 2.328125 -8.609375 C 2.210938 -8.566406 2.085938 -8.535156 1.953125 -8.515625 C 1.816406 -8.492188 1.707031 -8.515625 1.625 -8.578125 C 1.550781 -8.640625 1.550781 -8.765625 1.625 -8.953125 C 1.75 -9.273438 1.878906 -9.554688 2.015625 -9.796875 C 2.148438 -10.035156 2.320312 -10.300781 2.53125 -10.59375 C 2.675781 -10.726562 2.828125 -10.800781 2.984375 -10.8125 C 3.148438 -10.820312 3.285156 -10.78125 3.390625 -10.6875 C 3.492188 -10.59375 3.523438 -10.460938 3.484375 -10.296875 C 3.316406 -9.679688 3.015625 -9.15625 2.578125 -8.71875 Z M 2.578125 -8.71875 "/></g></g></g><g fill="#ba4b2f" fill-opacity="1"><g transform="translate(102.40754, 101.778693)"><g><path d="M 7.203125 -5.578125 C 6.171875 -4.359375 5.160156 -3.457031 4.171875 -2.875 C 3.191406 -2.300781 2.132812 -2.113281 1 -2.3125 C -0.125 -2.507812 -0.582031 -3.265625 -0.375 -4.578125 C -0.238281 -5.242188 -0.0507812 -5.890625 0.1875 -6.515625 C 0.78125 -7.984375 1.378906 -9.445312 1.984375 -10.90625 C 2.179688 -11.425781 2.394531 -11.953125 2.625 -12.484375 C 2.675781 -12.597656 2.722656 -12.710938 2.765625 -12.828125 C 2.847656 -13.015625 2.929688 -13.210938 3.015625 -13.421875 C 3.140625 -13.753906 3.007812 -13.929688 2.625 -13.953125 C 2.394531 -13.953125 2.175781 -13.953125 1.96875 -13.953125 C 1.863281 -13.953125 1.75 -13.953125 1.625 -13.953125 C 1.507812 -13.929688 1.390625 -13.914062 1.265625 -13.90625 C 1.066406 -13.882812 0.867188 -13.875 0.671875 -13.875 C 0.472656 -13.875 0.289062 -13.925781 0.125 -14.03125 C 0.0820312 -14.039062 0.046875 -14.066406 0.015625 -14.109375 C -0.00390625 -14.148438 -0.015625 -14.203125 -0.015625 -14.265625 C -0.00390625 -14.285156 0.015625 -14.316406 0.046875 -14.359375 C 0.0859375 -14.410156 0.132812 -14.441406 0.1875 -14.453125 C 0.351562 -14.523438 0.53125 -14.578125 0.71875 -14.609375 C 1.195312 -14.628906 1.671875 -14.644531 2.140625 -14.65625 C 2.316406 -14.65625 2.476562 -14.65625 2.625 -14.65625 C 2.925781 -14.65625 3.148438 -14.664062 3.296875 -14.6875 C 3.453125 -14.71875 3.578125 -14.800781 3.671875 -14.9375 C 3.765625 -15.070312 3.867188 -15.285156 3.984375 -15.578125 C 4.054688 -15.722656 4.144531 -15.890625 4.25 -16.078125 C 4.5 -16.617188 4.75 -17.171875 5 -17.734375 C 5.113281 -17.984375 5.234375 -18.226562 5.359375 -18.46875 C 5.460938 -18.707031 5.625 -18.890625 5.84375 -19.015625 C 6.050781 -19.117188 6.226562 -19.113281 6.375 -19 C 6.425781 -18.96875 6.460938 -18.914062 6.484375 -18.84375 C 6.515625 -18.78125 6.53125 -18.722656 6.53125 -18.671875 C 6.53125 -18.367188 6.453125 -18.070312 6.296875 -17.78125 C 6.265625 -17.71875 6.226562 -17.644531 6.1875 -17.5625 C 6.09375 -17.28125 5.988281 -17 5.875 -16.71875 C 5.644531 -16.195312 5.429688 -15.660156 5.234375 -15.109375 C 5.179688 -15.015625 5.179688 -14.925781 5.234375 -14.84375 C 5.285156 -14.769531 5.359375 -14.734375 5.453125 -14.734375 C 6.003906 -14.710938 6.539062 -14.703125 7.0625 -14.703125 C 7.332031 -14.703125 7.601562 -14.703125 7.875 -14.703125 C 8.71875 -14.691406 9.050781 -14.570312 8.875 -14.34375 C 8.757812 -14.21875 8.632812 -14.144531 8.5 -14.125 C 8.375 -14.101562 8.238281 -14.101562 8.09375 -14.125 C 8.007812 -14.125 7.925781 -14.125 7.84375 -14.125 C 6.976562 -14.070312 6.125 -14.039062 5.28125 -14.03125 C 4.882812 -14.03125 4.625 -13.851562 4.5 -13.5 C 4.363281 -13.15625 4.226562 -12.816406 4.09375 -12.484375 C 3.90625 -12.035156 3.722656 -11.597656 3.546875 -11.171875 C 3.378906 -10.773438 3.210938 -10.375 3.046875 -9.96875 C 2.609375 -8.9375 2.1875 -7.898438 1.78125 -6.859375 C 1.519531 -6.179688 1.316406 -5.488281 1.171875 -4.78125 C 0.847656 -3.5 1.347656 -3.007812 2.671875 -3.3125 C 3.960938 -3.613281 5.3125 -4.546875 6.71875 -6.109375 C 7.332031 -6.492188 7.492188 -6.316406 7.203125 -5.578125 Z M 7.203125 -5.578125 "/></g></g></g><g fill="#ba4b2f" fill-opacity="1"><g transform="translate(108.956258, 101.778693)"><g><path d="M 6.578125 -4.421875 C 6.128906 -3.984375 5.609375 -3.609375 5.015625 -3.296875 C 4.421875 -2.992188 3.925781 -2.789062 3.53125 -2.6875 C 3.132812 -2.59375 2.722656 -2.539062 2.296875 -2.53125 C 1.617188 -2.5 0.992188 -2.585938 0.421875 -2.796875 C -0.503906 -3.179688 -0.828125 -3.898438 -0.546875 -4.953125 C -0.273438 -5.867188 0.269531 -6.582031 1.09375 -7.09375 C 1.914062 -7.613281 2.765625 -7.867188 3.640625 -7.859375 C 3.640625 -7.859375 3.648438 -7.859375 3.671875 -7.859375 C 3.890625 -7.867188 4.097656 -7.851562 4.296875 -7.8125 C 4.640625 -7.6875 4.859375 -7.484375 4.953125 -7.203125 C 5.046875 -6.929688 4.984375 -6.625 4.765625 -6.28125 C 4.273438 -5.539062 3.601562 -5.128906 2.75 -5.046875 C 2.195312 -4.984375 1.65625 -5.007812 1.125 -5.125 C 1.03125 -5.132812 0.941406 -5.101562 0.859375 -5.03125 C 0.785156 -4.96875 0.742188 -4.882812 0.734375 -4.78125 C 0.578125 -4.125 0.78125 -3.703125 1.34375 -3.515625 C 2.03125 -3.273438 2.75 -3.273438 3.5 -3.515625 C 4.351562 -3.785156 5.171875 -4.289062 5.953125 -5.03125 C 6.734375 -5.78125 7.179688 -6.128906 7.296875 -6.078125 C 7.410156 -6.035156 7.445312 -5.894531 7.40625 -5.65625 C 7.300781 -5.28125 7.023438 -4.867188 6.578125 -4.421875 Z M 1.65625 -6.28125 C 1.613281 -6.226562 1.582031 -6.171875 1.5625 -6.109375 C 1.539062 -6.046875 1.566406 -5.984375 1.640625 -5.921875 C 1.910156 -5.773438 2.203125 -5.722656 2.515625 -5.765625 C 2.828125 -5.804688 3.09375 -5.921875 3.3125 -6.109375 C 3.53125 -6.304688 3.625 -6.550781 3.59375 -6.84375 C 3.570312 -6.9375 3.519531 -7 3.4375 -7.03125 C 3.351562 -7.0625 3.269531 -7.066406 3.1875 -7.046875 C 2.613281 -6.941406 2.101562 -6.6875 1.65625 -6.28125 Z M 1.65625 -6.28125 "/></g></g></g><g fill="#ba4b2f" fill-opacity="1"><g transform="translate(115.666389, 101.778693)"><g><path d="M 5.53125 -7.078125 C 5.46875 -6.546875 5.21875 -6.195312 4.78125 -6.03125 C 4.351562 -5.875 4.210938 -6.085938 4.359375 -6.671875 C 4.515625 -7.265625 4.253906 -7.414062 3.578125 -7.125 C 2.898438 -6.832031 2.34375 -6.46875 1.90625 -6.03125 C 1.226562 -5.34375 0.628906 -4.597656 0.109375 -3.796875 C 0.046875 -3.722656 0.00390625 -3.664062 -0.015625 -3.625 C -0.171875 -3.394531 -0.328125 -3.179688 -0.484375 -2.984375 C -0.585938 -2.847656 -0.703125 -2.757812 -0.828125 -2.71875 C -0.960938 -2.6875 -1.101562 -2.679688 -1.25 -2.703125 C -1.375 -2.722656 -1.472656 -2.773438 -1.546875 -2.859375 C -1.617188 -2.941406 -1.625 -3.039062 -1.5625 -3.15625 C -1.476562 -3.363281 -1.378906 -3.578125 -1.265625 -3.796875 C -0.578125 -5.078125 0.125 -6.363281 0.84375 -7.65625 C 0.851562 -7.675781 0.859375 -7.691406 0.859375 -7.703125 C 0.960938 -7.898438 1.082031 -8.085938 1.21875 -8.265625 C 1.375 -8.429688 1.550781 -8.5 1.75 -8.46875 C 1.945312 -8.4375 2.082031 -8.316406 2.15625 -8.109375 C 2.238281 -7.835938 2.3125 -7.6875 2.375 -7.65625 C 2.4375 -7.625 2.578125 -7.648438 2.796875 -7.734375 C 3.253906 -7.898438 3.703125 -8.015625 4.140625 -8.078125 C 4.578125 -8.148438 4.9375 -8.132812 5.21875 -8.03125 C 5.5 -7.925781 5.601562 -7.609375 5.53125 -7.078125 Z M 5.53125 -7.078125 "/></g></g></g><g fill="#ba4b2f" fill-opacity="1"><g transform="translate(121.431105, 101.778693)"><g><path d="M 8.359375 -5.875 C 8.546875 -5.769531 8.5625 -5.519531 8.40625 -5.125 C 8.1875 -4.832031 7.945312 -4.554688 7.6875 -4.296875 C 7.4375 -4.046875 7.160156 -3.820312 6.859375 -3.625 C 6.835938 -3.625 6.828125 -3.613281 6.828125 -3.59375 C 6.628906 -3.457031 6.414062 -3.335938 6.1875 -3.234375 C 4.351562 -2.578125 3.414062 -2.96875 3.375 -4.40625 C 2.632812 -3.757812 2.132812 -3.363281 1.875 -3.21875 C 1.269531 -2.851562 0.613281 -2.691406 -0.09375 -2.734375 C -0.613281 -2.765625 -0.96875 -2.921875 -1.15625 -3.203125 C -1.34375 -3.492188 -1.328125 -3.890625 -1.109375 -4.390625 C -0.765625 -5.160156 -0.285156 -5.847656 0.328125 -6.453125 C 1.066406 -7.128906 1.878906 -7.675781 2.765625 -8.09375 C 3.242188 -8.320312 3.742188 -8.410156 4.265625 -8.359375 C 4.785156 -8.328125 5.101562 -8.03125 5.21875 -7.46875 C 5.257812 -7.300781 5.21875 -7.15625 5.09375 -7.03125 C 4.914062 -6.875 4.71875 -6.835938 4.5 -6.921875 C 4.476562 -6.921875 4.453125 -6.921875 4.421875 -6.921875 C 4.398438 -6.929688 4.382812 -6.945312 4.375 -6.96875 C 4.144531 -7.269531 3.914062 -7.394531 3.6875 -7.34375 C 3.46875 -7.300781 3.226562 -7.203125 2.96875 -7.046875 C 1.789062 -6.359375 0.910156 -5.394531 0.328125 -4.15625 C 0.296875 -4.101562 0.273438 -4.039062 0.265625 -3.96875 C 0.265625 -3.90625 0.285156 -3.851562 0.328125 -3.8125 C 0.472656 -3.769531 0.628906 -3.78125 0.796875 -3.84375 C 0.960938 -3.90625 1.128906 -4 1.296875 -4.125 C 1.472656 -4.257812 1.617188 -4.367188 1.734375 -4.453125 C 1.742188 -4.472656 1.75 -4.484375 1.75 -4.484375 C 2.3125 -4.953125 2.863281 -5.429688 3.40625 -5.921875 C 3.644531 -6.179688 3.941406 -6.328125 4.296875 -6.359375 C 4.796875 -6.359375 5.003906 -6.128906 4.921875 -5.671875 C 4.878906 -5.503906 4.832031 -5.335938 4.78125 -5.171875 C 4.570312 -4.441406 4.5625 -4.007812 4.75 -3.875 C 4.9375 -3.75 5.21875 -3.75 5.59375 -3.875 C 5.976562 -4.007812 6.359375 -4.253906 6.734375 -4.609375 C 7.117188 -4.960938 7.441406 -5.285156 7.703125 -5.578125 C 7.960938 -5.878906 8.179688 -5.976562 8.359375 -5.875 Z M 8.359375 -5.875 "/></g></g></g><g fill="#ba4b2f" fill-opacity="1"><g transform="translate(129.075119, 101.778693)"><g><path d="M 7.203125 -5.578125 C 6.171875 -4.359375 5.160156 -3.457031 4.171875 -2.875 C 3.191406 -2.300781 2.132812 -2.113281 1 -2.3125 C -0.125 -2.507812 -0.582031 -3.265625 -0.375 -4.578125 C -0.238281 -5.242188 -0.0507812 -5.890625 0.1875 -6.515625 C 0.78125 -7.984375 1.378906 -9.445312 1.984375 -10.90625 C 2.179688 -11.425781 2.394531 -11.953125 2.625 -12.484375 C 2.675781 -12.597656 2.722656 -12.710938 2.765625 -12.828125 C 2.847656 -13.015625 2.929688 -13.210938 3.015625 -13.421875 C 3.140625 -13.753906 3.007812 -13.929688 2.625 -13.953125 C 2.394531 -13.953125 2.175781 -13.953125 1.96875 -13.953125 C 1.863281 -13.953125 1.75 -13.953125 1.625 -13.953125 C 1.507812 -13.929688 1.390625 -13.914062 1.265625 -13.90625 C 1.066406 -13.882812 0.867188 -13.875 0.671875 -13.875 C 0.472656 -13.875 0.289062 -13.925781 0.125 -14.03125 C 0.0820312 -14.039062 0.046875 -14.066406 0.015625 -14.109375 C -0.00390625 -14.148438 -0.015625 -14.203125 -0.015625 -14.265625 C -0.00390625 -14.285156 0.015625 -14.316406 0.046875 -14.359375 C 0.0859375 -14.410156 0.132812 -14.441406 0.1875 -14.453125 C 0.351562 -14.523438 0.53125 -14.578125 0.71875 -14.609375 C 1.195312 -14.628906 1.671875 -14.644531 2.140625 -14.65625 C 2.316406 -14.65625 2.476562 -14.65625 2.625 -14.65625 C 2.925781 -14.65625 3.148438 -14.664062 3.296875 -14.6875 C 3.453125 -14.71875 3.578125 -14.800781 3.671875 -14.9375 C 3.765625 -15.070312 3.867188 -15.285156 3.984375 -15.578125 C 4.054688 -15.722656 4.144531 -15.890625 4.25 -16.078125 C 4.5 -16.617188 4.75 -17.171875 5 -17.734375 C 5.113281 -17.984375 5.234375 -18.226562 5.359375 -18.46875 C 5.460938 -18.707031 5.625 -18.890625 5.84375 -19.015625 C 6.050781 -19.117188 6.226562 -19.113281 6.375 -19 C 6.425781 -18.96875 6.460938 -18.914062 6.484375 -18.84375 C 6.515625 -18.78125 6.53125 -18.722656 6.53125 -18.671875 C 6.53125 -18.367188 6.453125 -18.070312 6.296875 -17.78125 C 6.265625 -17.71875 6.226562 -17.644531 6.1875 -17.5625 C 6.09375 -17.28125 5.988281 -17 5.875 -16.71875 C 5.644531 -16.195312 5.429688 -15.660156 5.234375 -15.109375 C 5.179688 -15.015625 5.179688 -14.925781 5.234375 -14.84375 C 5.285156 -14.769531 5.359375 -14.734375 5.453125 -14.734375 C 6.003906 -14.710938 6.539062 -14.703125 7.0625 -14.703125 C 7.332031 -14.703125 7.601562 -14.703125 7.875 -14.703125 C 8.71875 -14.691406 9.050781 -14.570312 8.875 -14.34375 C 8.757812 -14.21875 8.632812 -14.144531 8.5 -14.125 C 8.375 -14.101562 8.238281 -14.101562 8.09375 -14.125 C 8.007812 -14.125 7.925781 -14.125 7.84375 -14.125 C 6.976562 -14.070312 6.125 -14.039062 5.28125 -14.03125 C 4.882812 -14.03125 4.625 -13.851562 4.5 -13.5 C 4.363281 -13.15625 4.226562 -12.816406 4.09375 -12.484375 C 3.90625 -12.035156 3.722656 -11.597656 3.546875 -11.171875 C 3.378906 -10.773438 3.210938 -10.375 3.046875 -9.96875 C 2.609375 -8.9375 2.1875 -7.898438 1.78125 -6.859375 C 1.519531 -6.179688 1.316406 -5.488281 1.171875 -4.78125 C 0.847656 -3.5 1.347656 -3.007812 2.671875 -3.3125 C 3.960938 -3.613281 5.3125 -4.546875 6.71875 -6.109375 C 7.332031 -6.492188 7.492188 -6.316406 7.203125 -5.578125 Z M 7.203125 -5.578125 "/></g></g></g><g fill="#ba4b2f" fill-opacity="1"><g transform="translate(135.623837, 101.778693)"><g><path d="M 0.28125 -2.046875 C -0.445312 -2.046875 -0.8125 -2.425781 -0.8125 -3.1875 C -0.8125 -4.113281 -0.207031 -5.753906 1 -8.109375 C 1.050781 -8.210938 1.132812 -8.265625 1.25 -8.265625 C 1.738281 -8.265625 1.984375 -8.070312 1.984375 -7.6875 C 1.984375 -7.539062 1.941406 -7.367188 1.859375 -7.171875 C 1.828125 -7.117188 1.421875 -6.101562 0.640625 -4.125 C 0.523438 -3.800781 0.46875 -3.566406 0.46875 -3.421875 C 0.46875 -3.242188 0.539062 -3.15625 0.6875 -3.15625 C 1.25 -3.15625 2.722656 -4.550781 5.109375 -7.34375 C 5.421875 -7.71875 5.722656 -7.90625 6.015625 -7.90625 C 6.453125 -7.90625 6.671875 -7.742188 6.671875 -7.421875 C 6.671875 -7.304688 6.539062 -6.84375 6.28125 -6.03125 C 5.90625 -4.9375 5.71875 -4.300781 5.71875 -4.125 C 5.71875 -3.875 5.800781 -3.75 5.96875 -3.75 C 6.394531 -3.75 7.628906 -4.503906 9.671875 -6.015625 C 9.785156 -6.109375 9.890625 -6.15625 9.984375 -6.15625 C 10.171875 -6.15625 10.265625 -5.992188 10.265625 -5.671875 C 10.265625 -5.585938 10.238281 -5.519531 10.1875 -5.46875 C 9.101562 -4.539062 8.179688 -3.832031 7.421875 -3.34375 C 6.722656 -2.894531 6.109375 -2.671875 5.578125 -2.671875 L 5.40625 -2.671875 C 4.613281 -2.847656 4.21875 -3.46875 4.21875 -4.53125 C 3.375 -3.789062 2.671875 -3.191406 2.109375 -2.734375 C 1.554688 -2.273438 0.945312 -2.046875 0.28125 -2.046875 Z M 0.28125 -2.046875 "/></g></g></g><g fill="#ba4b2f" fill-opacity="1"><g transform="translate(145.101031, 101.778693)"><g><path d="M 5.53125 -7.078125 C 5.46875 -6.546875 5.21875 -6.195312 4.78125 -6.03125 C 4.351562 -5.875 4.210938 -6.085938 4.359375 -6.671875 C 4.515625 -7.265625 4.253906 -7.414062 3.578125 -7.125 C 2.898438 -6.832031 2.34375 -6.46875 1.90625 -6.03125 C 1.226562 -5.34375 0.628906 -4.597656 0.109375 -3.796875 C 0.046875 -3.722656 0.00390625 -3.664062 -0.015625 -3.625 C -0.171875 -3.394531 -0.328125 -3.179688 -0.484375 -2.984375 C -0.585938 -2.847656 -0.703125 -2.757812 -0.828125 -2.71875 C -0.960938 -2.6875 -1.101562 -2.679688 -1.25 -2.703125 C -1.375 -2.722656 -1.472656 -2.773438 -1.546875 -2.859375 C -1.617188 -2.941406 -1.625 -3.039062 -1.5625 -3.15625 C -1.476562 -3.363281 -1.378906 -3.578125 -1.265625 -3.796875 C -0.578125 -5.078125 0.125 -6.363281 0.84375 -7.65625 C 0.851562 -7.675781 0.859375 -7.691406 0.859375 -7.703125 C 0.960938 -7.898438 1.082031 -8.085938 1.21875 -8.265625 C 1.375 -8.429688 1.550781 -8.5 1.75 -8.46875 C 1.945312 -8.4375 2.082031 -8.316406 2.15625 -8.109375 C 2.238281 -7.835938 2.3125 -7.6875 2.375 -7.65625 C 2.4375 -7.625 2.578125 -7.648438 2.796875 -7.734375 C 3.253906 -7.898438 3.703125 -8.015625 4.140625 -8.078125 C 4.578125 -8.148438 4.9375 -8.132812 5.21875 -8.03125 C 5.5 -7.925781 5.601562 -7.609375 5.53125 -7.078125 Z M 5.53125 -7.078125 "/></g></g></g><g fill="#ba4b2f" fill-opacity="1"><g transform="translate(150.865748, 101.778693)"><g><path d="M 6.578125 -4.421875 C 6.128906 -3.984375 5.609375 -3.609375 5.015625 -3.296875 C 4.421875 -2.992188 3.925781 -2.789062 3.53125 -2.6875 C 3.132812 -2.59375 2.722656 -2.539062 2.296875 -2.53125 C 1.617188 -2.5 0.992188 -2.585938 0.421875 -2.796875 C -0.503906 -3.179688 -0.828125 -3.898438 -0.546875 -4.953125 C -0.273438 -5.867188 0.269531 -6.582031 1.09375 -7.09375 C 1.914062 -7.613281 2.765625 -7.867188 3.640625 -7.859375 C 3.640625 -7.859375 3.648438 -7.859375 3.671875 -7.859375 C 3.890625 -7.867188 4.097656 -7.851562 4.296875 -7.8125 C 4.640625 -7.6875 4.859375 -7.484375 4.953125 -7.203125 C 5.046875 -6.929688 4.984375 -6.625 4.765625 -6.28125 C 4.273438 -5.539062 3.601562 -5.128906 2.75 -5.046875 C 2.195312 -4.984375 1.65625 -5.007812 1.125 -5.125 C 1.03125 -5.132812 0.941406 -5.101562 0.859375 -5.03125 C 0.785156 -4.96875 0.742188 -4.882812 0.734375 -4.78125 C 0.578125 -4.125 0.78125 -3.703125 1.34375 -3.515625 C 2.03125 -3.273438 2.75 -3.273438 3.5 -3.515625 C 4.351562 -3.785156 5.171875 -4.289062 5.953125 -5.03125 C 6.734375 -5.78125 7.179688 -6.128906 7.296875 -6.078125 C 7.410156 -6.035156 7.445312 -5.894531 7.40625 -5.65625 C 7.300781 -5.28125 7.023438 -4.867188 6.578125 -4.421875 Z M 1.65625 -6.28125 C 1.613281 -6.226562 1.582031 -6.171875 1.5625 -6.109375 C 1.539062 -6.046875 1.566406 -5.984375 1.640625 -5.921875 C 1.910156 -5.773438 2.203125 -5.722656 2.515625 -5.765625 C 2.828125 -5.804688 3.09375 -5.921875 3.3125 -6.109375 C 3.53125 -6.304688 3.625 -6.550781 3.59375 -6.84375 C 3.570312 -6.9375 3.519531 -7 3.4375 -7.03125 C 3.351562 -7.0625 3.269531 -7.066406 3.1875 -7.046875 C 2.613281 -6.941406 2.101562 -6.6875 1.65625 -6.28125 Z M 1.65625 -6.28125 "/></g></g></g><g fill="#ba4b2f" fill-opacity="1"><g transform="translate(117.066324, 134.63056)"><g/></g></g><g fill="#ba4b2f" fill-opacity="1"><g transform="translate(111.230614, 104.541813)"><g><path d="M 2.382812 0.0507812 C 3.601562 0.0507812 4.242188 -0.402344 4.328125 -1.164062 L 4.039062 -1.164062 C 3.953125 -0.539062 3.398438 -0.207031 2.382812 -0.207031 C 1.21875 -0.207031 0.691406 -0.628906 0.691406 -1.4375 L 0.691406 -1.664062 C 0.691406 -2.46875 1.21875 -2.890625 2.382812 -2.890625 C 3.378906 -2.890625 3.996094 -2.578125 4.042969 -1.984375 L 4.332031 -1.984375 C 4.285156 -2.71875 3.578125 -3.152344 2.382812 -3.152344 C 1.015625 -3.152344 0.414062 -2.59375 0.414062 -1.664062 L 0.414062 -1.4375 C 0.414062 -0.507812 1.015625 0.0507812 2.382812 0.0507812 Z M 2.382812 0.0507812 "/></g></g></g><g fill="#ba4b2f" fill-opacity="1"><g transform="translate(117.253146, 104.541813)"><g><path d="M 2.007812 0.0507812 C 3.152344 0.0507812 3.65625 -0.433594 3.65625 -1.214844 L 3.65625 -1.398438 C 3.65625 -2.179688 3.152344 -2.628906 2.007812 -2.628906 C 0.867188 -2.628906 0.363281 -2.175781 0.363281 -1.382812 L 0.363281 -1.191406 C 0.363281 -0.414062 0.867188 0.0507812 2.007812 0.0507812 Z M 2.007812 -0.195312 C 1.0625 -0.195312 0.628906 -0.511719 0.628906 -1.191406 L 0.628906 -1.382812 C 0.628906 -2.066406 1.0625 -2.382812 2.007812 -2.382812 C 2.964844 -2.382812 3.386719 -2.078125 3.386719 -1.398438 L 3.386719 -1.214844 C 3.386719 -0.523438 2.949219 -0.195312 2.007812 -0.195312 Z M 2.007812 -0.195312 "/></g></g></g><g fill="#ba4b2f" fill-opacity="1"><g transform="translate(122.542224, 104.541813)"><g><path d="M 4.890625 -2.628906 C 4.183594 -2.628906 3.703125 -2.304688 3.488281 -1.777344 C 3.355469 -2.3125 2.882812 -2.628906 2.179688 -2.628906 C 1.507812 -2.628906 1.042969 -2.339844 0.8125 -1.859375 L 0.8125 -2.582031 L 0.550781 -2.582031 L 0.550781 0 L 0.8125 0 L 0.8125 -1.039062 C 0.8125 -1.824219 1.296875 -2.390625 2.179688 -2.390625 C 2.832031 -2.390625 3.253906 -2.082031 3.253906 -1.40625 L 3.253906 0 L 3.523438 0 L 3.523438 -1.039062 C 3.523438 -1.824219 4.007812 -2.390625 4.890625 -2.390625 C 5.542969 -2.390625 5.964844 -2.082031 5.964844 -1.40625 L 5.964844 0 L 6.234375 0 L 6.234375 -1.453125 C 6.234375 -2.183594 5.726562 -2.628906 4.890625 -2.628906 Z M 4.890625 -2.628906 "/></g></g></g><g fill="#ba4b2f" fill-opacity="1"><g transform="translate(130.542996, 104.541813)"><g><path d="M 4.890625 -2.628906 C 4.183594 -2.628906 3.703125 -2.304688 3.488281 -1.777344 C 3.355469 -2.3125 2.882812 -2.628906 2.179688 -2.628906 C 1.507812 -2.628906 1.042969 -2.339844 0.8125 -1.859375 L 0.8125 -2.582031 L 0.550781 -2.582031 L 0.550781 0 L 0.8125 0 L 0.8125 -1.039062 C 0.8125 -1.824219 1.296875 -2.390625 2.179688 -2.390625 C 2.832031 -2.390625 3.253906 -2.082031 3.253906 -1.40625 L 3.253906 0 L 3.523438 0 L 3.523438 -1.039062 C 3.523438 -1.824219 4.007812 -2.390625 4.890625 -2.390625 C 5.542969 -2.390625 5.964844 -2.082031 5.964844 -1.40625 L 5.964844 0 L 6.234375 0 L 6.234375 -1.453125 C 6.234375 -2.183594 5.726562 -2.628906 4.890625 -2.628906 Z M 4.890625 -2.628906 "/></g></g></g><g fill="#ba4b2f" fill-opacity="1"><g transform="translate(138.543768, 104.541813)"><g><path d="M 0.597656 -2.945312 C 0.726562 -2.945312 0.785156 -3 0.785156 -3.09375 L 0.785156 -3.109375 C 0.785156 -3.203125 0.726562 -3.253906 0.597656 -3.253906 C 0.46875 -3.253906 0.414062 -3.203125 0.414062 -3.109375 L 0.414062 -3.089844 C 0.414062 -3 0.46875 -2.945312 0.597656 -2.945312 Z M 0.464844 0 L 0.722656 0 L 0.722656 -2.582031 L 0.464844 -2.582031 Z M 0.464844 0 "/></g></g></g><g fill="#ba4b2f" fill-opacity="1"><g transform="translate(141.002361, 104.541813)"><g><path d="M 2.007812 -0.261719 C 1.847656 -0.222656 1.699219 -0.195312 1.550781 -0.195312 C 0.996094 -0.195312 0.902344 -0.523438 0.902344 -0.886719 L 0.902344 -2.34375 L 1.992188 -2.34375 L 1.992188 -2.582031 L 0.902344 -2.582031 L 0.902344 -3.097656 L 0.644531 -3.097656 L 0.644531 -2.582031 L 0.1875 -2.582031 L 0.1875 -2.34375 L 0.644531 -2.34375 L 0.644531 -0.886719 C 0.644531 -0.558594 0.660156 0.0507812 1.550781 0.0507812 C 1.726562 0.0507812 1.902344 0.0195312 2.070312 -0.0429688 Z M 2.007812 -0.261719 "/></g></g></g><g fill="#ba4b2f" fill-opacity="1"><g transform="translate(144.468151, 104.541813)"><g><path d="M 2.007812 -0.261719 C 1.847656 -0.222656 1.699219 -0.195312 1.550781 -0.195312 C 0.996094 -0.195312 0.902344 -0.523438 0.902344 -0.886719 L 0.902344 -2.34375 L 1.992188 -2.34375 L 1.992188 -2.582031 L 0.902344 -2.582031 L 0.902344 -3.097656 L 0.644531 -3.097656 L 0.644531 -2.582031 L 0.1875 -2.582031 L 0.1875 -2.34375 L 0.644531 -2.34375 L 0.644531 -0.886719 C 0.644531 -0.558594 0.660156 0.0507812 1.550781 0.0507812 C 1.726562 0.0507812 1.902344 0.0195312 2.070312 -0.0429688 Z M 2.007812 -0.261719 "/></g></g></g><g fill="#ba4b2f" fill-opacity="1"><g transform="translate(147.93394, 104.541813)"><g><path d="M 1.957031 0.0507812 C 2.902344 0.0507812 3.464844 -0.316406 3.527344 -0.925781 L 3.253906 -0.925781 C 3.191406 -0.429688 2.707031 -0.1875 1.957031 -0.1875 C 1.085938 -0.1875 0.59375 -0.511719 0.628906 -1.25 C 1.085938 -1.171875 1.597656 -1.125 2.007812 -1.125 C 2.804688 -1.125 3.464844 -1.320312 3.464844 -1.796875 L 3.464844 -1.90625 C 3.464844 -2.355469 2.902344 -2.628906 2.015625 -2.628906 C 0.867188 -2.628906 0.363281 -2.164062 0.363281 -1.382812 L 0.363281 -1.191406 C 0.363281 -0.414062 0.867188 0.0507812 1.957031 0.0507812 Z M 2.015625 -1.363281 C 1.582031 -1.363281 1.042969 -1.414062 0.628906 -1.488281 C 0.667969 -2.0625 1.0625 -2.386719 2.015625 -2.386719 C 2.832031 -2.386719 3.195312 -2.183594 3.195312 -1.894531 L 3.195312 -1.8125 C 3.195312 -1.46875 2.65625 -1.363281 2.015625 -1.363281 Z M 2.015625 -1.363281 "/></g></g></g><g fill="#ba4b2f" fill-opacity="1"><g transform="translate(153.093889, 104.541813)"><g><path d="M 1.957031 0.0507812 C 2.902344 0.0507812 3.464844 -0.316406 3.527344 -0.925781 L 3.253906 -0.925781 C 3.191406 -0.429688 2.707031 -0.1875 1.957031 -0.1875 C 1.085938 -0.1875 0.59375 -0.511719 0.628906 -1.25 C 1.085938 -1.171875 1.597656 -1.125 2.007812 -1.125 C 2.804688 -1.125 3.464844 -1.320312 3.464844 -1.796875 L 3.464844 -1.90625 C 3.464844 -2.355469 2.902344 -2.628906 2.015625 -2.628906 C 0.867188 -2.628906 0.363281 -2.164062 0.363281 -1.382812 L 0.363281 -1.191406 C 0.363281 -0.414062 0.867188 0.0507812 1.957031 0.0507812 Z M 2.015625 -1.363281 C 1.582031 -1.363281 1.042969 -1.414062 0.628906 -1.488281 C 0.667969 -2.0625 1.0625 -2.386719 2.015625 -2.386719 C 2.832031 -2.386719 3.195312 -2.183594 3.195312 -1.894531 L 3.195312 -1.8125 C 3.195312 -1.46875 2.65625 -1.363281 2.015625 -1.363281 Z M 2.015625 -1.363281 "/></g></g></g></svg>