<svg xmlns="http://www.w3.org/2000/svg" xmlns:xlink="http://www.w3.org/1999/xlink" width="40" zoomAndPan="magnify" viewBox="0 0 30 30.000001" height="40" preserveAspectRatio="xMidYMid meet" version="1.0"><defs><clipPath id="cd115d85a8"><path d="M 5.75 2.902344 L 23.898438 2.902344 L 23.898438 26.128906 L 5.75 26.128906 Z M 5.75 2.902344 " clip-rule="nonzero"/></clipPath></defs><path fill="#fcf5eb" d="M 14.820312 15.253906 C 15.132812 15.253906 15.4375 15.222656 15.742188 15.160156 C 16.042969 15.101562 16.339844 15.007812 16.625 14.886719 C 16.910156 14.765625 17.183594 14.621094 17.441406 14.445312 C 17.699219 14.269531 17.933594 14.070312 18.152344 13.847656 C 18.375 13.625 18.570312 13.382812 18.742188 13.121094 C 18.914062 12.859375 19.058594 12.582031 19.175781 12.289062 C 19.292969 12 19.382812 11.699219 19.445312 11.390625 C 19.503906 11.082031 19.535156 10.769531 19.535156 10.453125 C 19.535156 10.136719 19.503906 9.824219 19.445312 9.515625 C 19.382812 9.207031 19.292969 8.90625 19.175781 8.617188 C 19.058594 8.324219 18.914062 8.046875 18.742188 7.785156 C 18.570312 7.523438 18.375 7.28125 18.152344 7.058594 C 17.933594 6.835938 17.699219 6.636719 17.441406 6.460938 C 17.183594 6.285156 16.910156 6.136719 16.625 6.015625 C 16.339844 5.898438 16.042969 5.804688 15.742188 5.746094 C 15.4375 5.683594 15.132812 5.652344 14.820312 5.652344 C 14.511719 5.652344 14.207031 5.683594 13.902344 5.746094 C 13.597656 5.804688 13.304688 5.898438 13.019531 6.015625 C 12.734375 6.136719 12.460938 6.285156 12.203125 6.460938 C 11.945312 6.636719 11.707031 6.835938 11.488281 7.058594 C 11.269531 7.28125 11.074219 7.523438 10.902344 7.785156 C 10.730469 8.046875 10.585938 8.324219 10.46875 8.617188 C 10.351562 8.90625 10.261719 9.207031 10.199219 9.515625 C 10.140625 9.824219 10.109375 10.136719 10.109375 10.453125 C 10.109375 10.769531 10.140625 11.078125 10.199219 11.390625 C 10.261719 11.699219 10.351562 12 10.46875 12.289062 C 10.589844 12.582031 10.734375 12.855469 10.90625 13.117188 C 11.078125 13.378906 11.273438 13.625 11.492188 13.847656 C 11.710938 14.070312 11.949219 14.269531 12.207031 14.441406 C 12.460938 14.617188 12.734375 14.765625 13.019531 14.886719 C 13.304688 15.007812 13.601562 15.097656 13.902344 15.160156 C 14.207031 15.222656 14.511719 15.253906 14.820312 15.253906 Z M 14.820312 6.636719 C 15.320312 6.636719 15.796875 6.730469 16.257812 6.925781 C 16.714844 7.121094 17.121094 7.394531 17.472656 7.753906 C 17.824219 8.113281 18.09375 8.523438 18.285156 8.992188 C 18.472656 9.460938 18.570312 9.945312 18.570312 10.453125 C 18.570312 10.960938 18.472656 11.445312 18.285156 11.914062 C 18.09375 12.382812 17.824219 12.792969 17.472656 13.152344 C 17.121094 13.511719 16.714844 13.785156 16.257812 13.980469 C 15.796875 14.171875 15.320312 14.269531 14.820312 14.269531 C 14.324219 14.269531 13.847656 14.171875 13.386719 13.980469 C 12.929688 13.785156 12.523438 13.511719 12.171875 13.152344 C 11.820312 12.792969 11.550781 12.382812 11.359375 11.914062 C 11.167969 11.445312 11.074219 10.960938 11.074219 10.453125 C 11.074219 9.945312 11.171875 9.460938 11.363281 8.992188 C 11.550781 8.523438 11.824219 8.113281 12.171875 7.753906 C 12.523438 7.398438 12.929688 7.121094 13.390625 6.925781 C 13.847656 6.734375 14.324219 6.636719 14.820312 6.636719 Z M 14.820312 6.636719 " fill-opacity="1" fill-rule="nonzero"/><g clip-path="url(#cd115d85a8)"><path fill="#fcf5eb" d="M 6.949219 23.269531 L 6.957031 23.269531 L 9.363281 23.253906 C 9.433594 23.253906 9.488281 23.285156 9.523438 23.347656 L 10.710938 25.476562 C 10.933594 25.875 11.265625 26.074219 11.710938 26.070312 C 12.15625 26.070312 12.488281 25.878906 12.707031 25.484375 L 14.820312 21.753906 L 16.9375 25.484375 C 17.15625 25.878906 17.488281 26.070312 17.929688 26.070312 C 18.375 26.070312 18.707031 25.875 18.925781 25.476562 L 20.113281 23.347656 C 20.148438 23.285156 20.203125 23.253906 20.273438 23.253906 L 22.679688 23.269531 L 22.691406 23.269531 C 23.132812 23.269531 23.464844 23.074219 23.6875 22.683594 C 23.90625 22.292969 23.90625 21.902344 23.683594 21.511719 L 20.347656 15.621094 L 21.074219 15.082031 L 22.550781 10.453125 L 21.078125 5.824219 L 17.210938 2.960938 L 12.4375 2.960938 L 8.574219 5.824219 L 7.089844 10.453125 L 8.566406 15.082031 L 9.300781 15.621094 L 5.957031 21.511719 C 5.734375 21.902344 5.734375 22.292969 5.957031 22.683594 C 6.175781 23.074219 6.507812 23.269531 6.949219 23.269531 Z M 22.851562 22.003906 C 22.890625 22.066406 22.890625 22.128906 22.851562 22.191406 C 22.816406 22.253906 22.765625 22.285156 22.695312 22.285156 L 20.289062 22.269531 C 19.84375 22.273438 19.511719 22.46875 19.289062 22.863281 L 18.101562 24.992188 C 18.066406 25.054688 18.015625 25.085938 17.941406 25.085938 C 17.871094 25.085938 17.816406 25.054688 17.78125 24.992188 L 15.378906 20.773438 L 16.980469 17.945312 L 17.210938 17.945312 L 19.566406 16.203125 Z M 8.105469 10.449219 L 9.386719 6.429688 L 12.746094 3.945312 L 16.898438 3.945312 L 20.257812 6.429688 L 21.539062 10.453125 L 20.257812 14.472656 L 16.898438 16.960938 L 12.746094 16.960938 L 9.386719 14.472656 Z M 6.792969 22.003906 L 10.078125 16.203125 L 12.4375 17.945312 L 15.867188 17.945312 L 11.875 24.992188 C 11.839844 25.054688 11.785156 25.089844 11.710938 25.085938 C 11.640625 25.085938 11.585938 25.054688 11.554688 24.992188 L 10.363281 22.859375 C 10.140625 22.46875 9.808594 22.269531 9.363281 22.269531 L 9.355469 22.269531 L 6.953125 22.285156 C 6.882812 22.285156 6.828125 22.253906 6.792969 22.191406 C 6.757812 22.128906 6.753906 22.066406 6.792969 22.003906 Z M 6.792969 22.003906 " fill-opacity="1" fill-rule="nonzero"/></g></svg>